<svg width="256" height="70" viewBox="0 0 256 70" fill="none" xmlns="http://www.w3.org/2000/svg">
<rect x="9" y="9" width="247" height="61" fill="#201F1F"/>
<rect width="247" height="61" fill="#863012"/>
<path d="M36.25 25.5H39.25V39H36.25V25.5ZM43.75 28.5H48.25V30H46.75V39H43.75V28.5ZM48.25 30H49.75V36H48.25V30ZM49.75 28.5H52.75V30H54.25V39H51.25V30H49.75V28.5ZM57.25 28.5H61.75V30H60.25V39H57.25V28.5ZM61.75 30H63.25V36H61.75V30ZM63.25 28.5H66.25V30H67.75V39H64.75V30H63.25V28.5ZM76.75 30H73.75V33H76.75V30ZM72.25 28.5H78.25V30H79.75V34.5H73.75V37.5H76.75V36H79.75V37.5H78.25V39H72.25V37.5H70.75V30H72.25V28.5ZM82.75 28.5H85.75V31.5H87.25V33H85.75V39H82.75V28.5ZM88.75 28.5H91.75V31.5H87.25V30H88.75V28.5ZM96.25 28.5H102.25V30H103.75V31.5H100.75V30H97.75V33H102.25V34.5H103.75V37.5H102.25V39H96.25V37.5H94.75V36H97.75V37.5H100.75V34.5H96.25V33H94.75V30H96.25V28.5ZM112.75 30H109.75V33H112.75V30ZM108.25 28.5H114.25V30H115.75V34.5H109.75V37.5H112.75V36H115.75V37.5H114.25V39H108.25V37.5H106.75V30H108.25V28.5ZM124.75 25.5H127.75V30H130.75V25.5H133.75V30H132.25V31.5H130.75V39H127.75V31.5H126.25V30H124.75V25.5ZM138.25 28.5H144.25V30H145.75V37.5H144.25V39H138.25V37.5H136.75V30H138.25V28.5ZM142.75 30H139.75V37.5H142.75V30ZM148.75 28.5H151.75V37.5H154.75V28.5H157.75V37.5H156.25V39H150.25V37.5H148.75V28.5ZM160.75 28.5H163.75V31.5H165.25V33H163.75V39H160.75V28.5ZM166.75 28.5H169.75V31.5H165.25V30H166.75V28.5ZM174.25 28.5H180.25V30H181.75V31.5H178.75V30H175.75V33H180.25V34.5H181.75V37.5H180.25V39H174.25V37.5H172.75V36H175.75V37.5H178.75V34.5H174.25V33H172.75V30H174.25V28.5ZM190.75 30H187.75V33H190.75V30ZM186.25 28.5H192.25V30H193.75V34.5H187.75V37.5H190.75V36H193.75V37.5H192.25V39H186.25V37.5H184.75V30H186.25V28.5ZM198.25 25.5H201.25V37.5H202.75V39H199.75V37.5H198.25V25.5ZM208.75 25.5H213.25V27H210.25V30H213.25V31.5H210.25V39H207.25V31.5H205.75V30H207.25V27H208.75V25.5Z" fill="white"/>
<rect x="248" width="8" height="8" fill="#353535"/>
<rect y="62" width="8" height="8" fill="#353535"/>
</svg>
