<svg width="1396" height="69" viewBox="0 0 1396 69" fill="none" xmlns="http://www.w3.org/2000/svg">
<g clip-path="url(#clip0_192_5476)">
<path d="M697.984 45.0143L21.3674 44L86 69H697.984H1313L1374.63 44L697.984 45.0143Z" fill="url(#paint0_linear_192_5476)"/>
<path d="M697.984 45.0143L21.3674 44L87 69H697.984H1312L1374.63 44L697.984 45.0143Z" fill="url(#paint1_linear_192_5476)"/>
<path d="M1369.75 -248H26.255C15.6884 -248 7.12256 -242.718 7.12256 -236.203V27.203C7.12256 33.7183 15.6884 39 26.255 39H1369.75C1380.31 39 1388.88 33.7183 1388.88 27.203V-236.203C1388.88 -242.718 1380.31 -248 1369.75 -248Z" fill="url(#paint2_linear_192_5476)"/>
<path d="M1363.74 44H32.2941C23.7374 43.9947 15.5333 41.8884 9.47974 38.1429C3.4262 34.3974 0.0172819 29.3183 0 24.0187V-233.999C0.0172574 -239.3 3.42514 -244.381 9.47775 -248.13C15.5304 -251.879 23.7344 -253.989 32.2941 -254H1363.74C1372.3 -253.989 1380.5 -251.878 1386.54 -248.129C1392.59 -244.379 1395.99 -239.298 1396 -233.999V24.0187C1395.99 29.3164 1392.59 34.3956 1386.54 38.1417C1380.49 41.8877 1372.29 43.9947 1363.74 44ZM32.2941 -243.807C28.0939 -243.807 24.0658 -242.774 21.0958 -240.934C18.1258 -239.095 16.4573 -236.6 16.4573 -233.999V24.0187C16.4573 26.6201 18.1258 29.115 21.0958 30.9545C24.0658 32.7939 28.0939 33.8274 32.2941 33.8274H1363.74C1367.94 33.822 1371.96 32.7869 1374.93 30.9485C1377.9 29.1102 1379.57 26.6185 1379.58 24.0187V-233.999C1379.58 -236.6 1377.91 -239.095 1374.94 -240.934C1371.97 -242.774 1367.94 -243.807 1363.74 -243.807H32.2941Z" fill="url(#paint3_linear_192_5476)"/>
</g>
<defs>
<linearGradient id="paint0_linear_192_5476" x1="697.984" y1="69" x2="697.984" y2="44" gradientUnits="userSpaceOnUse">
<stop stop-color="#1B0838"/>
<stop offset="0.29" stop-color="#1C093B"/>
<stop offset="0.5" stop-color="#210E44"/>
<stop offset="0.67" stop-color="#281653"/>
<stop offset="0.84" stop-color="#322269"/>
<stop offset="0.99" stop-color="#3F3185"/>
<stop offset="1" stop-color="#403288"/>
</linearGradient>
<linearGradient id="paint1_linear_192_5476" x1="697.984" y1="94.4574" x2="697.984" y2="29.1432" gradientUnits="userSpaceOnUse">
<stop stop-color="#F433FF"/>
<stop offset="0.89" stop-color="#5729EA" stop-opacity="0"/>
</linearGradient>
<linearGradient id="paint2_linear_192_5476" x1="697.984" y1="106.495" x2="697.984" y2="-327.978" gradientUnits="userSpaceOnUse">
<stop stop-color="#6232C9"/>
<stop offset="0.03" stop-color="#5C2EBC"/>
<stop offset="0.15" stop-color="#482394"/>
<stop offset="0.28" stop-color="#381973"/>
<stop offset="0.4" stop-color="#2B1259"/>
<stop offset="0.53" stop-color="#220C47"/>
<stop offset="0.67" stop-color="#1D093C"/>
<stop offset="0.82" stop-color="#1B0838"/>
</linearGradient>
<linearGradient id="paint3_linear_192_5476" x1="425.246" y1="187.61" x2="672.618" y2="-504.214" gradientUnits="userSpaceOnUse">
<stop stop-color="#5629EA"/>
<stop offset="0.29" stop-color="#F433FF"/>
<stop offset="0.54" stop-color="#FFD2A2"/>
<stop offset="0.74" stop-color="#5629EA"/>
<stop offset="1" stop-color="#F433FF"/>
</linearGradient>
<clipPath id="clip0_192_5476">
<rect width="1396" height="69" fill="white"/>
</clipPath>
</defs>
</svg>
