<svg width="1266" height="990" viewBox="0 0 1266 990" fill="none" xmlns="http://www.w3.org/2000/svg">
<path d="M1265.37 2.31519H0.372192V927.139H1265.37V2.31519Z" fill="#86E5EF"/>
<g style="mix-blend-mode:multiply" opacity="0.18">
<path d="M1265.37 0.913879H4.68878V53.3123H1265.37V0.913879Z" fill="#86E5EF"/>
<path d="M1265.37 59.5422H4.68884V86.6297H1265.37V59.5422Z" fill="#86E5EF"/>
<path d="M1265.37 94.1151H4.68884V114.933H1265.37V94.1151Z" fill="#86E5EF"/>
<path d="M1265.37 124.09H4.68884V138.637H1265.37V124.09Z" fill="#86E5EF"/>
<path d="M1265.37 148.055H4.68884V156.333H1265.37V148.055Z" fill="#86E5EF"/>
</g>
<g style="mix-blend-mode:multiply">
<path opacity="0.2" d="M1265.37 801.863H0.372314V839.655H1265.37V801.863Z" fill="#B0D4FF"/>
<path opacity="0.2" d="M1265.37 775.088H0.372314V839.657H1265.37V775.088Z" fill="#B0D4FF"/>
<path opacity="0.2" d="M1265.37 754.267H0.372192V839.656H1265.37V754.267Z" fill="#B0D4FF"/>
</g>
<path d="M870.916 933.254H884.521V946.775H857.315V933.254H870.916Z" fill="#C96965"/>
<path d="M870.916 892.684H884.521V906.208H870.916V892.684Z" fill="#C96965"/>
<path d="M884.521 906.208H898.128V919.73H884.521V906.208Z" fill="#C96965"/>
<path d="M911.716 973.818H898.128V960.277H911.716V973.818Z" fill="#C96965"/>
<path d="M898.128 892.684V879.163H911.716V892.684H898.128Z" fill="#C96965"/>
<path d="M925.317 946.774V960.277H911.716V946.774H925.317Z" fill="#C96965"/>
<path d="M911.716 865.642H925.317V879.163H911.716V865.642Z" fill="#C96965"/>
<path d="M979.737 919.729H993.339V946.774H966.131V933.253H979.737V919.729Z" fill="#C96965"/>
<path d="M979.737 879.163H993.339V892.684H979.737V879.163Z" fill="#C96965"/>
<path d="M1020.53 919.73V933.254H1006.94V906.208H1020.53V919.73Z" fill="#C96965"/>
<path d="M1034.14 946.775H1020.53V933.254H1034.14V946.775Z" fill="#C96965"/>
<path d="M1074.95 946.775H1061.35V933.254H1074.95V946.775Z" fill="#C96965"/>
<path d="M1088.55 960.277H1074.95V946.774H1088.55V960.277Z" fill="#C96965"/>
<path d="M1102.16 933.254V946.775H1088.55V933.254H1102.16Z" fill="#C96965"/>
<path d="M1156.56 933.254H1170.16V946.775H1183.77V960.277H1142.96V946.775H1156.56V933.254Z" fill="#C96965"/>
<path d="M1210.96 933.253H1197.37V919.729H1210.96V933.253Z" fill="#C96965"/>
<path d="M1238.17 933.254V946.775H1210.96V933.254H1238.17Z" fill="#C96965"/>
<path d="M1251.77 919.729V933.253H1238.17V919.729H1251.77Z" fill="#C96965"/>
<path d="M857.315 973.817H1265.38V989.913H843.708V973.817H857.315Z" fill="#5E2725"/>
<path d="M857.315 906.208V892.684H870.916V906.208H884.521V919.729H857.315V933.253H843.708V906.208H857.315Z" fill="#873835"/>
<path d="M870.916 879.163V865.642H884.521V892.684H870.916V879.163Z" fill="#873835"/>
<path d="M884.521 892.684H898.128V906.208H884.521V892.684Z" fill="#873835"/>
<path d="M898.128 906.208H925.319V892.684H938.925V879.163H952.527V892.684H966.133V879.163H979.738V892.684H993.341V879.163H1006.95V892.684H1034.14V906.208H1047.74V919.729H1061.35V946.774H1074.95V960.276H1088.56V946.774H1102.16V933.253H1088.56V919.729H1074.95V892.686H1034.14V879.164H1061.35V865.643H1074.95V879.164H1088.56V906.21H1115.75V879.164H1142.96V865.643H1156.56V892.686H1129.35V906.21H1142.95V919.731H1156.56V892.687H1183.76V906.211H1197.37V892.687H1210.96V879.166H1224.56V906.211H1251.77V892.687H1265.38V973.821H911.716V960.278H925.318V946.776H911.716V960.278H898.128V973.821H843.709V946.776H898.128V933.255H884.523V919.731H898.128V906.21V906.208ZM1251.77 919.729H1238.17V933.253H1210.96V919.729H1197.37V933.253H1210.96V946.774H1238.17V933.253H1251.77V919.729ZM1156.56 960.276H1183.77V946.774H1170.16V933.253H1156.56V946.774H1142.96V960.276H1156.56ZM1006.94 906.208V933.253H1020.53V946.774H1034.14V933.253H1020.53V906.208H1006.94ZM938.923 933.253H966.131V946.774H993.339V919.729H979.737V933.253H966.131V919.729H952.526V906.208H938.923V919.729H925.318V933.253H938.923Z" fill="#873835"/>
<path d="M898.128 865.642H911.716V879.163H898.128V865.642Z" fill="#873835"/>
<path d="M979.736 865.642H993.339V879.163H979.736V865.642Z" fill="#873835"/>
<path d="M1088.55 933.254V946.775H1074.95V933.254H1088.55Z" fill="#873835"/>
<path d="M1197.37 865.642H1210.96V879.163H1197.37V865.642Z" fill="#873835"/>
<path d="M857.315 946.775H843.708V933.254H857.315V946.775Z" fill="#439F00"/>
<path d="M857.314 865.642H870.916V892.684H857.314V906.208H843.708V865.642H857.314Z" fill="#439F00"/>
<path d="M870.916 919.729H884.521V933.253H857.315V919.729H870.916Z" fill="#439F00"/>
<path d="M898.128 946.775H884.521V933.254H898.128V946.775Z" fill="#439F00"/>
<path d="M884.521 879.163V865.642H898.128V892.684H884.521V879.163Z" fill="#439F00"/>
<path d="M898.128 892.684H911.716V879.163H925.317V865.642H979.736V879.163H966.131V892.684H952.525V879.163H938.923V892.684H925.317V906.208H898.128V892.684Z" fill="#439F00"/>
<path d="M938.923 906.208H952.525V919.73H966.131V933.254H925.317V919.73H938.923V906.208Z" fill="#439F00"/>
<path d="M1020.53 865.642H1061.35V879.163H1034.14V892.684H1006.94V879.163H993.339V865.642H1020.53Z" fill="#439F00"/>
<path d="M1061.35 892.684H1074.95V919.729H1088.55V933.253H1061.35V919.729H1047.74V906.208H1034.14V892.684H1061.35Z" fill="#439F00"/>
<path d="M1088.55 892.684V879.163H1074.95V865.642H1142.96V879.163H1115.74V906.208H1088.55V892.684Z" fill="#439F00"/>
<path d="M1156.56 892.684V919.729H1142.96V906.208H1129.35V892.684H1156.56Z" fill="#439F00"/>
<path d="M1156.56 865.642H1197.37V879.163H1210.96V892.684H1197.37V906.208H1183.77V892.684H1156.56V865.642Z" fill="#439F00"/>
<path d="M1224.57 865.642H1265.38V892.684H1251.77V906.208H1224.57V879.163H1210.96V865.642H1224.57Z" fill="#439F00"/>
<path d="M857.315 852.119H1265.38V865.642H843.708V852.119H857.315Z" fill="#8CC500"/>
<path d="M449.249 933.254H462.855V946.775H435.647V933.254H449.249Z" fill="#C96965"/>
<path d="M449.249 892.684H462.855V906.208H449.249V892.684Z" fill="#C96965"/>
<path d="M462.855 906.208H476.461V919.729H462.855V906.208Z" fill="#C96965"/>
<path d="M490.049 973.818H476.461V960.277H490.049V973.818Z" fill="#C96965"/>
<path d="M476.461 892.684V879.163H490.049V892.684H476.461Z" fill="#C96965"/>
<path d="M503.65 946.774V960.277H490.049V946.774H503.65Z" fill="#C96965"/>
<path d="M490.049 865.642H503.65V879.163H490.049V865.642Z" fill="#C96965"/>
<path d="M558.07 919.729H571.671V946.774H544.463V933.253H558.07V919.729Z" fill="#C96965"/>
<path d="M558.07 879.163H571.671V892.684H558.07V879.163Z" fill="#C96965"/>
<path d="M598.865 919.729V933.253H585.277V906.208H598.865V919.729Z" fill="#C96965"/>
<path d="M612.468 946.775H598.865V933.254H612.468V946.775Z" fill="#C96965"/>
<path d="M653.281 946.775H639.679V933.254H653.281V946.775Z" fill="#C96965"/>
<path d="M666.887 960.277H653.281V946.774H666.887V960.277Z" fill="#C96965"/>
<path d="M680.49 933.254V946.775H666.887V933.254H680.49Z" fill="#C96965"/>
<path d="M734.891 933.254H748.497V946.775H762.099V960.277H721.288V946.775H734.891V933.254Z" fill="#C96965"/>
<path d="M789.293 933.253H775.705V919.729H789.293V933.253Z" fill="#C96965"/>
<path d="M816.501 933.254V946.775H789.293V933.254H816.501Z" fill="#C96965"/>
<path d="M830.107 919.729V933.253H816.501V919.729H830.107Z" fill="#C96965"/>
<path d="M435.647 973.818H843.708V989.914H422.041V973.818H435.647Z" fill="#5E2725"/>
<path d="M435.647 906.208V892.684H449.249V906.208H462.855V919.729H435.647V933.253H422.041V906.208H435.647Z" fill="#873835"/>
<path d="M449.249 879.163V865.642H462.855V892.684H449.249V879.163Z" fill="#873835"/>
<path d="M462.855 892.684H476.46V906.208H462.855V892.684Z" fill="#873835"/>
<path d="M476.46 906.208H503.65V892.684H517.255V879.163H530.858V892.684H544.463V879.163H558.069V892.684H571.671V879.163H585.277V892.684H612.467V906.208H626.073V919.729H639.679V946.774H653.281V960.276H666.887V946.774H680.489V933.253H666.887V919.729H653.281V892.686H612.467V879.164H639.679V865.643H653.281V879.164H666.887V906.21H694.077V879.164H721.288V865.643H734.889V892.686H707.681V906.21H721.287V919.731H734.888V892.687H762.096V906.211H775.702V892.687H789.29V879.166H802.895V906.211H830.103V892.687H843.706V973.821H490.047V960.278H503.648V946.776H490.047V960.278H476.459V973.821H422.04V946.776H476.459V933.255H462.853V919.731H476.459V906.21L476.46 906.208ZM830.106 919.729H816.501V933.253H789.293V919.729H775.705V933.253H789.293V946.774H816.501V933.253H830.106V919.729ZM734.891 960.276H762.099V946.774H748.496V933.253H734.891V946.774H721.29V960.276H734.891ZM585.277 906.208V933.253H598.865V946.774H612.467V933.253H598.865V906.208H585.277ZM517.257 933.253H544.465V946.774H571.673V919.729H558.07V933.253H544.465V919.729H530.859V906.208H517.257V919.729H503.651V933.253H517.257Z" fill="#873835"/>
<path d="M476.461 865.642H490.049V879.163H476.461V865.642Z" fill="#873835"/>
<path d="M558.07 865.642H571.671V879.163H558.07V865.642Z" fill="#873835"/>
<path d="M666.887 933.254V946.775H653.281V933.254H666.887Z" fill="#873835"/>
<path d="M775.705 865.642H789.293V879.163H775.705V865.642Z" fill="#873835"/>
<path d="M435.647 946.775H422.042V933.254H435.647V946.775Z" fill="#439F00"/>
<path d="M435.647 865.642H449.25V892.684H435.647V906.208H422.042V865.642H435.647Z" fill="#439F00"/>
<path d="M449.249 919.729H462.855V933.253H435.647V919.729H449.249Z" fill="#439F00"/>
<path d="M476.461 946.775H462.855V933.254H476.461V946.775Z" fill="#439F00"/>
<path d="M462.855 879.163V865.642H476.461V892.684H462.855V879.163Z" fill="#439F00"/>
<path d="M476.461 892.684H490.049V879.163H503.65V865.642H558.07V879.163H544.463V892.684H530.859V879.163H517.257V892.684H503.65V906.208H476.461V892.684Z" fill="#439F00"/>
<path d="M517.257 906.208H530.859V919.729H544.464V933.253H503.65V919.729H517.257V906.208Z" fill="#439F00"/>
<path d="M598.865 865.642H639.679V879.163H612.468V892.684H585.277V879.163H571.672V865.642H598.865Z" fill="#439F00"/>
<path d="M639.679 892.684H653.281V919.729H666.887V933.253H639.679V919.729H626.073V906.208H612.468V892.684H639.679Z" fill="#439F00"/>
<path d="M666.887 892.684V879.163H653.281V865.642H721.289V879.163H694.078V906.208H666.887V892.684Z" fill="#439F00"/>
<path d="M734.891 892.684V919.729H721.289V906.208H707.683V892.684H734.891Z" fill="#439F00"/>
<path d="M734.891 865.642H775.705V879.163H789.293V892.684H775.705V906.208H762.099V892.684H734.891V865.642Z" fill="#439F00"/>
<path d="M802.898 865.642H843.708V892.684H830.106V906.208H802.898V879.163H789.293V865.642H802.898Z" fill="#439F00"/>
<path d="M435.647 852.119H843.707V865.642H422.041V852.119H435.647Z" fill="#8CC500"/>
<path d="M27.5815 933.254H41.1869V946.775H13.9787V933.254H27.5815Z" fill="#C96965"/>
<path d="M27.5815 892.684H41.1869V906.208H27.5815V892.684Z" fill="#C96965"/>
<path d="M41.1873 906.208H54.7928V919.729H41.1873V906.208Z" fill="#C96965"/>
<path d="M68.3806 973.818H54.7927V960.277H68.3806V973.818Z" fill="#C96965"/>
<path d="M54.7927 892.684V879.163H68.3806V892.684H54.7927Z" fill="#C96965"/>
<path d="M81.983 946.774V960.277H68.3804V946.774H81.983Z" fill="#C96965"/>
<path d="M68.3804 865.642H81.983V879.163H68.3804V865.642Z" fill="#C96965"/>
<path d="M136.402 919.729H150.005V946.774H122.797V933.253H136.402V919.729Z" fill="#C96965"/>
<path d="M136.402 879.163H150.005V892.684H136.402V879.163Z" fill="#C96965"/>
<path d="M177.198 919.729V933.253H163.61V906.208H177.198V919.729Z" fill="#C96965"/>
<path d="M190.801 946.775H177.198V933.254H190.801V946.775Z" fill="#C96965"/>
<path d="M231.613 946.775H218.012V933.254H231.613V946.775Z" fill="#C96965"/>
<path d="M245.22 960.277H231.613V946.774H245.22V960.277Z" fill="#C96965"/>
<path d="M258.823 933.254V946.775H245.22V933.254H258.823Z" fill="#C96965"/>
<path d="M313.223 933.254H326.829V946.775H340.431V960.277H299.622V946.775H313.223V933.254Z" fill="#C96965"/>
<path d="M367.625 933.253H354.037V919.729H367.625V933.253Z" fill="#C96965"/>
<path d="M394.833 933.254V946.775H367.625V933.254H394.833Z" fill="#C96965"/>
<path d="M408.438 919.729V933.253H394.833V919.729H408.438Z" fill="#C96965"/>
<path d="M13.9788 973.818H422.041V989.914H0.373381V973.818H13.9788Z" fill="#5E2725"/>
<path d="M13.9787 906.208V892.684H27.5815V906.208H41.1869V919.729H13.9787V933.253H0.373285V906.208H13.9787Z" fill="#873835"/>
<path d="M27.5815 879.163V865.642H41.1869V892.684H27.5815V879.163Z" fill="#873835"/>
<path d="M41.1873 892.684H54.7928V906.208H41.1873V892.684Z" fill="#873835"/>
<path d="M54.7927 906.208H81.9833V892.684H95.5903V879.163H109.191V892.684H122.797V879.163H136.403V892.684H150.005V879.163H163.611V892.684H190.801V906.208H204.407V919.729H218.012V946.774H231.615V960.276H245.22V946.774H258.823V933.253H245.22V919.729H231.615V892.686H190.801V879.164H218.012V865.643H231.615V879.164H245.22V906.21H272.41V879.164H299.621V865.643H313.222V892.686H286.014V906.21H299.619V919.731H313.22V892.687H340.428V906.211H354.034V892.687H367.622V879.166H381.227V906.211H408.436V892.687H422.038V973.821H68.3793V960.278H81.9804V946.776H68.3793V960.278H54.7913V973.821H0.372115V946.776H54.7913V933.255H41.1857V919.731H54.7913V906.21L54.7927 906.208ZM408.439 919.729H394.833V933.253H367.625V919.729H354.037V933.253H367.625V946.774H394.833V933.253H408.439V919.729ZM313.223 960.276H340.431V946.774H326.829V933.253H313.223V946.774H299.622V960.276H313.223ZM163.611 906.208V933.253H177.199V946.774H190.8V933.253H177.199V906.208H163.611ZM95.5903 933.253H122.797V946.774H150.005V919.729H136.403V933.253H122.797V919.729H109.191V906.208H95.5903V919.729H81.9833V933.253H95.5903Z" fill="#873835"/>
<path d="M54.7927 865.642H68.3806V879.163H54.7927V865.642Z" fill="#873835"/>
<path d="M136.402 865.642H150.005V879.163H136.402V865.642Z" fill="#873835"/>
<path d="M245.22 933.254V946.775H231.613V933.254H245.22Z" fill="#873835"/>
<path d="M354.037 865.642H367.625V879.163H354.037V865.642Z" fill="#873835"/>
<path d="M13.9792 946.775H0.37381V933.254H13.9792V946.775Z" fill="#439F00"/>
<path d="M13.9788 865.642H27.5815V892.684H13.9788V906.208H0.37338V865.642H13.9788Z" fill="#439F00"/>
<path d="M27.5816 919.729H41.187V933.253H13.9788V919.729H27.5816Z" fill="#439F00"/>
<path d="M54.7925 946.775H41.1869V933.254H54.7925V946.775Z" fill="#439F00"/>
<path d="M41.1869 879.163V865.642H54.7925V892.684H41.1869V879.163Z" fill="#439F00"/>
<path d="M54.7926 892.684H68.3805V879.163H81.9832V865.642H136.402V879.163H122.797V892.684H109.191V879.163H95.5901V892.684H81.9832V906.208H54.7926V892.684Z" fill="#439F00"/>
<path d="M95.5901 906.208H109.191V919.729H122.797V933.253H81.9832V919.729H95.5901V906.208Z" fill="#439F00"/>
<path d="M177.199 865.642H218.012V879.163H190.801V892.684H163.611V879.163H150.005V865.642H177.199Z" fill="#439F00"/>
<path d="M218.012 892.684H231.613V919.729H245.22V933.253H218.012V919.729H204.407V906.208H190.801V892.684H218.012Z" fill="#439F00"/>
<path d="M245.22 892.684V879.163H231.613V865.642H299.622V879.163H272.41V906.208H245.22V892.684Z" fill="#439F00"/>
<path d="M313.223 892.684V919.729H299.622V906.208H286.015V892.684H313.223Z" fill="#439F00"/>
<path d="M313.223 865.642H354.037V879.163H367.625V892.684H354.037V906.208H340.431V892.684H313.223V865.642Z" fill="#439F00"/>
<path d="M381.23 865.642H422.041V892.684H408.438V906.208H381.23V879.163H367.625V865.642H381.23Z" fill="#439F00"/>
<path d="M13.9788 852.119H422.041V865.642H0.373381V852.119H13.9788Z" fill="#8CC500"/>
<path d="M861.494 842.259H870.629V851.338H861.494V842.259Z" fill="#787A77"/>
<path d="M861.494 833.19H870.629V842.258H861.494V833.19Z" fill="#E7EBE4"/>
<path d="M870.629 842.259H879.754V851.338H870.629V842.259Z" fill="#B2B5B0"/>
<path d="M870.629 833.19H879.754V842.258H870.629V833.19Z" fill="#B2B5B0"/>
<path d="M870.629 824.096H879.754V833.19H870.629V824.096Z" fill="#B2B5B0"/>
<path d="M870.629 815.029H879.754V824.096H870.629V815.029Z" fill="#E7EBE4"/>
<path d="M879.754 842.259H888.891V851.338H879.754V842.259Z" fill="#787A77"/>
<path d="M879.754 833.19H888.891V842.258H879.754V833.19Z" fill="#B2B5B0"/>
<path d="M879.754 824.096H888.891V833.19H879.754V824.096Z" fill="#B2B5B0"/>
<path d="M879.754 815.029H888.891V824.096H879.754V815.029Z" fill="#787A77"/>
<path d="M888.891 842.259H898.025V851.338H888.891V842.259Z" fill="#787A77"/>
<path d="M888.891 833.19H898.025V842.258H888.891V833.19Z" fill="#787A77"/>
<path d="M888.891 824.096H898.025V833.19H888.891V824.096Z" fill="#787A77"/>
<path d="M888.891 815.029H898.025V824.096H888.891V815.029Z" fill="#B2B5B0"/>
<path d="M888.891 805.949H898.025V815.029H888.891V805.949Z" fill="#E7EBE4"/>
<path d="M898.025 842.259H907.162V851.338H898.025V842.259Z" fill="#787A77"/>
<path d="M898.025 833.19H907.162V842.258H898.025V833.19Z" fill="#787A77"/>
<path d="M898.025 824.096H907.162V833.19H898.025V824.096Z" fill="#B2B5B0"/>
<path d="M898.025 815.029H907.162V824.096H898.025V815.029Z" fill="#B2B5B0"/>
<path d="M898.025 805.949H907.162V815.029H898.025V805.949Z" fill="#E7EBE4"/>
<path d="M907.162 842.259H916.3V851.338H907.162V842.259Z" fill="#787A77"/>
<path d="M907.162 833.19H916.3V842.258H907.162V833.19Z" fill="#B2B5B0"/>
<path d="M907.162 824.096H916.3V833.19H907.162V824.096Z" fill="#787A77"/>
<path d="M907.162 815.029H916.3V824.096H907.162V815.029Z" fill="#B2B5B0"/>
<path d="M916.299 842.259H925.433V851.338H916.299V842.259Z" fill="#B2B5B0"/>
<path d="M916.299 833.19H925.433V842.258H916.299V833.19Z" fill="#B2B5B0"/>
<path d="M916.299 824.096H925.433V833.19H916.299V824.096Z" fill="#B2B5B0"/>
<path d="M916.299 815.029H925.433V824.096H916.299V815.029Z" fill="#E7EBE4"/>
<path d="M925.433 842.259H934.571V851.338H925.433V842.259Z" fill="#B2B5B0"/>
<path d="M925.433 833.19H934.571V842.258H925.433V833.19Z" fill="#E7EBE4"/>
<path d="M925.433 824.096H934.571V833.19H925.433V824.096Z" fill="#E7EBE4"/>
<path d="M934.571 842.259H943.708V851.338H934.571V842.259Z" fill="#E7EBE4"/>
<path d="M1122.38 806.276H1137.38V821.209V836.101V851.012H1122.38H1107.37V836.101V821.209V806.276H1122.38Z" fill="#C96965"/>
<path d="M1122.38 791.385H1137.38V806.276H1122.38H1107.37V791.385H1122.38Z" fill="#873835"/>
<path d="M1062.37 776.474V791.385V806.276H1047.37V791.385V776.474H1062.37Z" fill="#2D6F00"/>
<path d="M1092.38 791.385V806.276H1077.37V791.385V776.474H1092.38V791.385Z" fill="#2D6F00"/>
<path d="M1077.37 746.651H1092.38V761.56H1077.37V746.651Z" fill="#2D6F00"/>
<path d="M1092.37 731.736H1107.38V746.651H1092.37V731.736Z" fill="#2D6F00"/>
<path d="M1137.38 761.56V776.474V791.385H1122.38H1107.37V776.474V761.56H1122.38H1137.38Z" fill="#2D6F00"/>
<path d="M1122.38 716.825H1137.38V731.736H1122.38V716.825Z" fill="#2D6F00"/>
<path d="M1137.38 731.736H1152.36V746.651H1137.38V731.736Z" fill="#2D6F00"/>
<path d="M1167.37 791.385V806.276H1152.36V791.385V776.474H1167.37V791.385Z" fill="#2D6F00"/>
<path d="M1062.37 746.651V731.736H1077.37V716.825H1092.37V701.916H1107.37V687.001H1122.38V701.916H1137.38V716.825H1122.38V731.736H1137.38V746.651H1152.36V731.736H1167.37V746.651H1182.37V776.475H1137.38V761.56H1107.37V776.475H1047.37V746.651H1062.37H1062.37ZM1092.38 761.56V746.651H1107.38V731.736H1092.38V746.651H1077.37V761.56H1092.38Z" fill="#439F00"/>
<path d="M1137.38 716.825H1152.36V731.736H1137.38V716.825Z" fill="#439F00"/>
<path d="M1122.38 687.001H1137.38V701.916H1122.38V687.001Z" fill="#8CC500"/>
<path d="M1137.38 701.916H1152.36V716.825H1137.38V701.916Z" fill="#8CC500"/>
<path d="M1152.36 716.825H1167.37V731.736H1152.36V716.825Z" fill="#8CC500"/>
<path d="M1167.37 731.736H1182.37V746.651H1167.37V731.736Z" fill="#8CC500"/>
<path d="M1197.37 761.56V776.474V791.385V806.276H1182.37V791.385V776.474V761.56V746.651H1197.37V761.56Z" fill="#8CC500"/>
<path d="M151.485 810.664H165.536V824.651V838.592V852.556H151.485H137.437V838.592V824.651V810.664H151.485Z" fill="#C96965"/>
<path d="M151.485 796.723H165.536V810.664H151.485H137.437V796.723H151.485Z" fill="#873835"/>
<path d="M95.2888 782.759V796.723V810.664H81.2434V796.723V782.759H95.2888Z" fill="#2D6F00"/>
<path d="M123.391 796.723V810.664H109.34V796.723V782.759H123.391V796.723Z" fill="#2D6F00"/>
<path d="M109.34 754.833H123.391V768.796H109.34V754.833Z" fill="#2D6F00"/>
<path d="M123.392 740.866H137.437V754.832H123.392V740.866Z" fill="#2D6F00"/>
<path d="M165.536 768.794V782.759V796.723H151.485H137.436V782.759V768.794H151.485H165.536Z" fill="#2D6F00"/>
<path d="M151.485 726.903H165.536V740.866H151.485V726.903Z" fill="#2D6F00"/>
<path d="M165.537 740.866H179.564V754.832H165.537V740.866Z" fill="#2D6F00"/>
<path d="M193.615 796.723V810.664H179.564V796.723V782.759H193.615V796.723Z" fill="#2D6F00"/>
<path d="M95.2887 754.833V740.866H109.34V726.903H123.391V712.939H137.436V698.975H151.485V712.939H165.536V726.903H151.485V740.866H165.536V754.833H179.562V740.866H193.614V754.833H207.662V782.761H165.535V768.796H137.435V782.761H81.2419V754.833H95.2873H95.2887ZM123.391 768.794V754.831H137.436V740.865H123.391V754.831H109.34V768.794H123.391Z" fill="#439F00"/>
<path d="M165.537 726.903H179.564V740.866H165.537V726.903Z" fill="#439F00"/>
<path d="M151.485 698.976H165.536V712.941H151.485V698.976Z" fill="#8CC500"/>
<path d="M165.538 712.941H179.564V726.904H165.538V712.941Z" fill="#8CC500"/>
<path d="M179.564 726.903H193.615V740.866H179.564V726.903Z" fill="#8CC500"/>
<path d="M193.615 740.866H207.663V754.833H193.615V740.866Z" fill="#8CC500"/>
<path d="M221.712 768.794V782.759V796.723V810.664H207.663V796.723V782.759V768.794V754.832H221.712V768.794Z" fill="#8CC500"/>
<path d="M316.629 822.274H326.831V832.429V842.555V852.694H316.629H306.425V842.555V832.429V822.274H316.629Z" fill="#C96965"/>
<path d="M316.629 812.149H326.831V822.274H316.629H306.425V812.149H316.629Z" fill="#873835"/>
<path d="M275.82 802.008V812.149V822.275H265.619V812.149V802.008H275.82Z" fill="#2D6F00"/>
<path d="M296.226 812.149V822.275H286.022V812.149V802.008H296.226V812.149Z" fill="#2D6F00"/>
<path d="M286.023 781.727H296.226V791.866H286.023V781.727Z" fill="#2D6F00"/>
<path d="M296.226 771.585H306.425V781.727H296.226V771.585Z" fill="#2D6F00"/>
<path d="M326.831 791.866V802.008V812.149H316.629H306.425V802.008V791.866H316.629H326.831Z" fill="#2D6F00"/>
<path d="M316.629 761.447H326.831V771.586H316.629V761.447Z" fill="#2D6F00"/>
<path d="M326.831 771.585H337.019V781.727H326.831V771.585Z" fill="#2D6F00"/>
<path d="M347.223 812.149V822.275H337.019V812.149V802.008H347.223V812.149Z" fill="#2D6F00"/>
<path d="M275.819 781.727V771.585H286.023V761.446H296.225V751.307H306.425V741.165H316.629V751.307H326.831V761.446H316.629V771.585H326.831V781.727H337.019V771.585H347.221V781.727H357.423V802.008H326.831V791.866H306.425V802.008H265.618V781.727H275.818H275.819ZM296.225 791.866V781.727H306.425V771.585H296.225V781.727H286.023V791.866H296.225Z" fill="#439F00"/>
<path d="M326.831 761.447H337.019V771.585H326.831V761.447Z" fill="#439F00"/>
<path d="M316.629 741.165H326.831V751.307H316.629V741.165Z" fill="#8CC500"/>
<path d="M326.831 751.307H337.019V761.446H326.831V751.307Z" fill="#8CC500"/>
<path d="M337.02 761.446H347.223V771.585H337.02V761.446Z" fill="#8CC500"/>
<path d="M347.222 771.585H357.425V781.727H347.222V771.585Z" fill="#8CC500"/>
<path d="M367.626 791.866V802.008V812.149V822.274H357.425V812.149V802.008V791.866V781.727H367.626V791.866Z" fill="#8CC500"/>
<path d="M384.105 842.211H392.535V850.591H384.105V842.211Z" fill="#B2B5B0"/>
<path d="M392.535 842.211H400.968V850.591H392.535V842.211Z" fill="#787A77"/>
<path d="M392.535 833.843H400.968V842.211H392.535V833.843Z" fill="#B2B5B0"/>
<path d="M400.968 842.211H409.398V850.591H400.968V842.211Z" fill="#B2B5B0"/>
<path d="M400.968 833.843H409.398V842.211H400.968V833.843Z" fill="#787A77"/>
<path d="M400.968 825.449H409.398V833.842H400.968V825.449Z" fill="#E7EBE4"/>
<path d="M409.398 842.211H417.831V850.591H409.398V842.211Z" fill="#B2B5B0"/>
<path d="M409.398 833.843H417.831V842.211H409.398V833.843Z" fill="#B2B5B0"/>
<path d="M409.398 825.449H417.831V833.842H409.398V825.449Z" fill="#787A77"/>
<path d="M409.398 817.081H417.831V825.449H409.398V817.081Z" fill="#E7EBE4"/>
<path d="M417.83 842.211H426.263V850.591H417.83V842.211Z" fill="#787A77"/>
<path d="M417.83 833.843H426.263V842.211H417.83V833.843Z" fill="#B2B5B0"/>
<path d="M417.83 825.449H426.263V833.842H417.83V825.449Z" fill="#B2B5B0"/>
<path d="M417.83 817.081H426.263V825.449H417.83V817.081Z" fill="#E7EBE4"/>
<path d="M417.83 808.701H426.263V817.081H417.83V808.701Z" fill="#E7EBE4"/>
<path d="M426.263 842.211H434.684V850.591H426.263V842.211Z" fill="#787A77"/>
<path d="M426.263 833.843H434.684V842.211H426.263V833.843Z" fill="#787A77"/>
<path d="M426.263 825.449H434.684V833.842H426.263V825.449Z" fill="#B2B5B0"/>
<path d="M426.263 817.081H434.684V825.449H426.263V817.081Z" fill="#E7EBE4"/>
<path d="M426.263 808.701H434.684V817.081H426.263V808.701Z" fill="#E7EBE4"/>
<path d="M434.686 842.211H443.116V850.591H434.686V842.211Z" fill="#787A77"/>
<path d="M434.686 833.843H443.116V842.211H434.686V833.843Z" fill="#787A77"/>
<path d="M434.686 825.449H443.116V833.842H434.686V825.449Z" fill="#B2B5B0"/>
<path d="M434.686 817.081H443.116V825.449H434.686V817.081Z" fill="#E7EBE4"/>
<path d="M443.115 842.211H451.548V850.591H443.115V842.211Z" fill="#B2B5B0"/>
<path d="M443.115 833.843H451.548V842.211H443.115V833.843Z" fill="#B2B5B0"/>
<path d="M443.115 825.449H451.548V833.842H443.115V825.449Z" fill="#E7EBE4"/>
<path d="M451.548 842.211H459.978V850.591H451.548V842.211Z" fill="#B2B5B0"/>
</svg>
