<svg width="360" height="61" viewBox="0 0 360 61" fill="none" xmlns="http://www.w3.org/2000/svg">
<path d="M6.64082 60.0695H353.359C354.434 60.0695 355.489 59.7953 356.419 59.2745C357.35 58.7537 358.121 58.0048 358.657 57.1033C359.193 56.2018 359.473 55.1796 359.47 54.1397C359.467 53.0998 359.181 52.0791 358.641 51.1804L332.666 7.9665C331.317 5.71544 329.38 3.84695 327.049 2.54799C324.719 1.24903 322.076 0.565186 319.387 0.564941H40.6128C37.9236 0.566106 35.2817 1.25035 32.9514 2.54921C30.621 3.84808 28.6838 5.71606 27.3334 7.9665L1.35925 51.1804C0.818613 52.0791 0.532449 53.0998 0.529563 54.1397C0.526677 55.1796 0.807145 56.2018 1.34278 57.1033C1.87842 58.0048 2.65028 58.7537 3.58044 59.2745C4.51061 59.7953 5.56619 60.0695 6.64082 60.0695Z" fill="url(#paint0_linear_107_232)"/>
<defs>
<linearGradient id="paint0_linear_107_232" x1="180" y1="39.1018" x2="180" y2="73.4318" gradientUnits="userSpaceOnUse">
<stop stop-color="#642E8B"/>
<stop offset="1" stop-color="#2E0E47"/>
</linearGradient>
</defs>
</svg>
