<svg width="1120" height="1684" viewBox="0 0 1120 1684" fill="none" xmlns="http://www.w3.org/2000/svg">
<path d="M94.8802 15.2606V525.68C94.8802 525.68 109.111 1047.89 72.3138 1089.32C35.5165 1130.74 19.4558 1161.77 19.4558 1234.72H41.4529V1682.87H316.091V15.3622L94.8802 15.2606Z" fill="url(#paint0_linear_107_3)"/>
<path d="M1047.69 1089.34C1010.89 1047.91 1025.12 525.7 1025.12 525.7V15.2809H803.889V1682.87H1100.58V1234.74C1100.58 1161.81 1084.48 1130.74 1047.69 1089.34Z" fill="url(#paint1_linear_107_3)"/>
<path d="M559.99 314.903L139.138 313.866L225.744 339.428H559.99H894.256L980.861 313.866L559.99 314.903Z" fill="url(#paint2_linear_107_3)"/>
<path d="M559.99 314.903L139.138 313.866L225.744 339.428H559.99H894.256L980.861 313.866L559.99 314.903Z" fill="url(#paint3_linear_107_3)"/>
<path d="M977.568 20.3851H142.432C135.864 20.3851 130.539 25.7112 130.539 32.2813V297.903C130.539 304.473 135.864 309.799 142.432 309.799H977.568C984.137 309.799 989.461 304.473 989.461 297.903V32.2813C989.461 25.7112 984.137 20.3851 977.568 20.3851Z" fill="url(#paint4_linear_107_3)"/>
<path d="M894.256 339.428H225.744V1015.72H894.256V339.428Z" fill="url(#paint5_linear_107_3)"/>
<path style="mix-blend-mode:multiply" opacity="0.39" d="M894.256 339.428H225.744V1015.72H894.256V339.428Z" fill="url(#paint6_linear_107_3)"/>
<path d="M801.144 375.747H318.856C287.485 375.747 262.054 401.185 262.054 432.564V922.587C262.054 953.966 287.485 979.404 318.856 979.404H801.144C832.515 979.404 857.946 953.966 857.946 922.587V432.564C857.946 401.185 832.515 375.747 801.144 375.747Z" fill="#321D7E"/>
<path d="M987.692 1176.43L894.174 1015.78H225.744L132.226 1176.43C127.73 1184.18 125.359 1192.98 125.355 1201.93V1682.87H994.503V1201.93C994.528 1192.98 992.178 1184.18 987.692 1176.43Z" fill="url(#paint7_linear_107_3)"/>
<path d="M987.692 1176.43L894.174 1015.78H225.744L132.226 1176.43C127.73 1184.18 125.359 1192.98 125.355 1201.93V1682.87H994.503V1201.93C994.528 1192.98 992.178 1184.18 987.692 1176.43Z" fill="url(#paint8_linear_107_3)"/>
<path d="M801.144 375.747H318.856C287.485 375.747 262.054 401.185 262.054 432.564V922.587C262.054 953.966 287.485 979.404 318.856 979.404H801.144C832.515 979.404 857.946 953.966 857.946 922.587V432.564C857.946 401.185 832.515 375.747 801.144 375.747Z" fill="url(#paint9_radial_107_3)"/>
<mask id="mask0_107_3" style="mask-type:luminance" maskUnits="userSpaceOnUse" x="262" y="375" width="596" height="605">
<path d="M801.144 375.747H318.856C287.485 375.747 262.054 401.185 262.054 432.564V922.587C262.054 953.966 287.485 979.404 318.856 979.404H801.144C832.515 979.404 857.946 953.966 857.946 922.587V432.564C857.946 401.185 832.515 375.747 801.144 375.747Z" fill="white"/>
</mask>
<g mask="url(#mask0_107_3)">
<g style="mix-blend-mode:overlay">
<path d="M286.612 801.754H223.833L248.453 794.84H306.658L286.612 801.754ZM226.558 801.388H286.551L304.543 795.287H248.575L226.558 801.388Z" fill="white"/>
<path d="M347.968 801.754H285.474L305.641 794.84H363.622L347.968 801.754ZM287.669 801.388H347.846L361.853 795.287H305.682L287.669 801.388Z" fill="white"/>
<path d="M409.324 801.754H347.053L362.748 794.84H420.506L409.324 801.754ZM348.802 801.388H409.222L419.225 795.287H362.789L348.802 801.388Z" fill="white"/>
<path d="M470.7 801.754H408.633L419.814 794.84H477.409L470.7 801.754ZM409.914 801.388H470.538L476.637 795.287H420.018L409.914 801.388Z" fill="white"/>
<path d="M532.097 801.754H470.192L476.901 794.84H534.333V795.084L532.097 801.754ZM471.107 801.388H531.894L533.927 795.287H477.145L471.107 801.388Z" fill="white"/>
<path d="M593.555 801.754H531.711V801.53L533.866 794.84H591.237V794.962L593.555 801.754ZM532.199 801.388H593.046L591.013 795.287H534.089L532.199 801.388Z" fill="white"/>
<path d="M655.073 801.754H593.168V801.632L590.973 794.84H648.405L655.073 801.754ZM593.433 801.388H654.219L648.12 795.287H591.339L593.433 801.388Z" fill="white"/>
<path d="M716.633 801.754H654.565L647.856 794.84H705.492L716.633 801.754ZM654.728 801.388H715.352L705.349 795.287H648.73L654.728 801.388Z" fill="white"/>
<path d="M778.212 801.754H715.819L704.678 794.86H762.578L778.212 801.754ZM716.043 801.388H776.463L762.456 795.287H706.04L716.043 801.388Z" fill="white"/>
<path d="M839.832 801.754H777.317L761.704 794.84H819.726L839.832 801.754ZM777.44 801.388H837.637L819.644 795.287H763.432L777.44 801.388Z" fill="white"/>
<path d="M901.351 801.754H838.613L818.506 794.84H876.772L901.351 801.754ZM838.714 801.388H898.789L876.772 795.287H820.783L838.714 801.388Z" fill="white"/>
<path d="M264.493 809.359H196.855L225.317 801.388H287.669L264.493 809.359ZM199.437 808.993H264.493L285.555 801.754H225.256L199.437 808.993Z" fill="white"/>
<path d="M330.749 809.359H263.355L286.572 801.388H348.802L330.749 809.359ZM265.55 808.993H330.606L346.992 801.754H286.612L265.55 808.993Z" fill="white"/>
<path d="M397.025 809.359H329.936L348.009 801.388H409.995L397.025 809.359ZM331.582 808.993H396.923L408.633 801.754H347.968L331.582 808.993Z" fill="white"/>
<path d="M463.321 809.359H396.333L409.223 801.388H471.046L463.321 809.359ZM397.614 808.993H463.158L470.192 801.754H409.324L397.614 808.993Z" fill="white"/>
<path d="M529.637 809.359H462.812L470.538 801.388H532.199V801.632L529.637 809.359ZM463.727 808.993H529.434L531.772 801.754H470.782L463.727 808.993Z" fill="white"/>
<path d="M596.014 809.359H529.251V809.136L531.751 801.388H593.351V801.53L596.014 809.359ZM529.759 808.993H595.506L593.168 801.754H532.178L529.759 808.993Z" fill="white"/>
<path d="M662.453 809.359H595.628V809.237L593.087 801.388H654.829L662.453 809.359ZM595.872 808.993H661.579L654.544 801.754H593.554L595.872 808.993Z" fill="white"/>
<path d="M728.932 809.359H661.843L654.118 801.388H715.941L728.932 809.359ZM662.107 808.993H727.631L715.941 801.754H655.073L662.107 808.993Z" fill="white"/>
<path d="M795.411 809.359H728.18L715.352 801.408H777.419L795.411 809.359ZM728.322 808.993H793.663L777.277 801.754H716.632L728.322 808.993Z" fill="white"/>
<path d="M861.91 809.359H794.476L776.463 801.388H838.734L861.91 809.359ZM794.577 808.993H859.633L838.572 801.754H778.131L794.577 808.993Z" fill="white"/>
<path d="M928.39 809.359H860.752L837.576 801.388H900.07L928.39 809.359ZM860.833 808.993H925.747L900.009 801.754H839.832L860.833 808.993Z" fill="white"/>
<path d="M238.491 818.287H165.1L198.197 808.993H265.55L238.491 818.287ZM167.763 817.941H238.43L263.355 809.359H198.299L167.763 817.941Z" fill="white"/>
<path d="M310.541 818.287H237.353L264.493 808.993H331.582L310.541 818.287ZM239.569 817.941H310.459L329.854 809.359H264.493L239.569 817.941Z" fill="white"/>
<path d="M382.59 818.287H309.646L330.708 808.993H397.614L382.59 818.287ZM311.435 817.941H382.59L396.435 809.359H330.749L311.435 817.941Z" fill="white"/>
<path d="M454.66 818.287H381.899L396.923 808.993H463.727L454.66 818.287ZM383.18 817.941H454.497L462.812 809.359H397.024L383.18 817.941Z" fill="white"/>
<path d="M526.75 818.287H454.152L463.158 808.993H529.759V809.237L526.75 818.287ZM455.006 817.941H526.486L529.251 809.359H463.321L455.006 817.941Z" fill="white"/>
<path d="M598.901 818.287H526.364V818.063L529.291 808.993H595.872V809.136L598.901 818.287ZM526.872 817.941H598.393L595.628 809.359H529.637L526.872 817.941Z" fill="white"/>
<path d="M671.093 818.287H598.515V818.165L595.547 808.993H662.148L671.093 818.287ZM598.759 817.941H670.239L661.924 809.359H595.994L598.759 817.941Z" fill="white"/>
<path d="M743.366 818.287H670.605L661.599 808.993H728.342L743.366 818.287ZM670.768 817.941H742.086L728.241 809.359H662.453L670.768 817.941Z" fill="white"/>
<path d="M815.619 818.287H742.634L727.631 809.014H794.72L815.619 818.287ZM742.777 817.941H813.932L794.557 809.359H728.973L742.777 817.941Z" fill="white"/>
<path d="M887.892 818.287H814.704L793.704 808.993H860.793L887.892 818.287ZM814.704 817.941H885.595L860.671 809.359H795.31L814.704 817.941Z" fill="white"/>
<path d="M286.47 828.922H206.431L238.471 817.941H311.374L286.47 828.922ZM208.626 828.576H286.389L309.646 818.287H238.491L208.626 828.576Z" fill="white"/>
<path d="M365.411 828.922H285.575L310.5 817.941H383.18L365.411 828.922ZM287.303 828.576H365.289L381.899 818.287H310.54L287.303 828.576Z" fill="white"/>
<path d="M444.332 828.922H364.7L382.488 817.941H455.006L444.332 828.922ZM366.001 828.576H444.19L454.152 818.287H382.59L366.001 828.576Z" fill="white"/>
<path d="M523.314 828.922H443.824L454.497 817.941H526.872V818.165L523.314 828.922ZM444.698 828.576H523.05L526.364 818.287H454.66L444.698 828.576Z" fill="white"/>
<path d="M602.337 828.922H522.928V828.698L526.425 817.941H598.719V818.063L602.337 828.922ZM523.416 828.576H601.829L598.515 818.287H526.75L523.416 828.576Z" fill="white"/>
<path d="M681.441 828.922H601.971V828.8L598.454 817.941H670.829L681.441 828.922ZM602.154 828.576H680.506L670.544 818.287H598.84L602.154 828.576Z" fill="white"/>
<path d="M760.545 828.922H680.913L670.239 817.941H742.797L760.545 828.922ZM681.055 828.576H759.244L742.655 818.287H671.093L681.055 828.576Z" fill="white"/>
<path d="M839.69 828.922H759.813L742.086 817.961H814.826L839.69 828.922ZM759.976 828.576H837.962L814.725 818.287H743.366L759.976 828.576Z" fill="white"/>
<path d="M918.835 828.922H838.755L813.891 817.941H886.856L918.835 828.922ZM838.856 828.576H916.639L886.754 818.287H815.599L838.856 828.576Z" fill="white"/>
<path d="M257.317 841.815H168.942L207.569 828.576H287.344L257.317 841.815ZM171.138 841.449H257.256L285.575 828.922H207.569L171.138 841.449Z" fill="white"/>
<path d="M344.573 841.815H256.361L286.368 828.576H365.94L344.573 841.815ZM258.15 841.449H344.471L364.7 828.922H286.47L258.15 841.449Z" fill="white"/>
<path d="M431.85 841.815H343.882L365.289 828.576H444.698L431.85 841.815ZM345.163 841.449H431.687L443.885 828.922H365.411L345.163 841.449Z" fill="white"/>
<path d="M519.147 841.815H431.342L444.19 828.576H523.477V828.8L519.147 841.815ZM432.195 841.449H518.883L522.949 828.922H444.353L432.195 841.449Z" fill="white"/>
<path d="M606.505 841.815H518.76V841.571L522.969 828.576H602.134V828.698L606.505 841.815ZM519.269 841.449H606.037L601.971 828.922H523.335L519.269 841.449Z" fill="white"/>
<path d="M693.924 841.815H606.037V841.693L601.788 828.576H681.075L693.924 841.815ZM606.383 841.449H693.07L680.872 828.922H602.276L606.383 841.449Z" fill="white"/>
<path d="M781.383 841.815H693.456L680.608 828.576H760.057L781.383 841.815ZM693.578 841.449H780.082L759.854 828.922H681.441L693.578 841.449Z" fill="white"/>
<path d="M868.843 841.815H780.631L759.264 828.597H838.897L868.843 841.815ZM780.794 841.449H867.095L838.795 828.922H760.545L780.794 841.449Z" fill="white"/>
<path d="M956.303 841.815H867.908L837.962 828.597H917.798L956.303 841.815ZM868.01 841.449H954.107L917.696 828.922H839.69L868.01 841.449Z" fill="white"/>
<path d="M318.856 857.737H220.397L257.296 841.469H345.163L318.856 857.737ZM222.125 857.371H318.734L343.882 841.815H257.317L222.125 857.371Z" fill="white"/>
<path d="M416.399 857.737H318.144L344.573 841.469H432.297L416.399 857.737ZM319.384 857.371H416.196L431.28 841.815H344.573L319.384 857.371Z" fill="white"/>
<path d="M514.003 857.737H415.891L431.687 841.469H519.269V841.713L514.003 857.737ZM416.765 857.371H513.739L518.76 841.815H431.85L416.765 857.371Z" fill="white"/>
<path d="M611.648 857.737H513.617V857.493L518.801 841.449H606.22V841.571L611.648 857.737ZM514.064 857.371H611.099L606.078 841.815H519.106L514.064 857.371Z" fill="white"/>
<path d="M709.374 857.737H611.262V857.615L606.037 841.347H693.619L709.374 857.737ZM611.526 857.371H708.5L693.415 841.815H606.505L611.526 857.371Z" fill="white"/>
<path d="M807.101 857.737H708.846L693.11 841.469H780.875L807.101 857.737ZM709.009 857.371H805.82L780.672 841.815H693.924L709.009 857.371Z" fill="white"/>
<path d="M904.888 857.737H806.43L780.143 841.469H868.111L904.888 857.737ZM806.532 857.371H903.16L867.948 841.815H781.404L806.532 857.371Z" fill="white"/>
<path d="M286.226 877.91H174.736L221.271 857.371H319.384L286.226 877.91ZM176.444 877.544H286.104L318.124 857.737H221.292L176.444 877.544Z" fill="white"/>
<path d="M396.841 877.91H285.535L318.734 857.371H416.765L396.841 877.91ZM286.856 877.544H396.638L415.85 857.737H318.856L286.856 877.544Z" fill="white"/>
<path d="M507.477 877.91H396.333L416.257 857.371H514.105V857.615L507.477 877.91ZM397.187 877.544H507.213L513.617 857.737H416.399L397.187 877.544Z" fill="white"/>
<path d="M618.235 877.91H507.152V877.666L513.719 857.331H611.506V857.453L618.235 877.91ZM507.66 877.544H617.727L611.323 857.737H514.064L507.66 877.544Z" fill="white"/>
<path d="M728.932 877.91H617.788V877.788L611.181 857.453H709.049L728.932 877.91ZM618.052 877.544H728.017L708.785 857.737H611.587L618.052 877.544Z" fill="white"/>
<path d="M839.832 877.91H728.424L708.562 857.432H806.633L839.832 877.91ZM728.688 877.544H838.47L806.43 857.737H709.395L728.688 877.544Z" fill="white"/>
<path d="M950.529 877.91H838.978L805.82 857.392H904.075L950.529 877.91ZM839.141 877.544H948.801L903.953 857.737H807.101L839.141 877.544Z" fill="white"/>
<path d="M243.533 904.326H114.946L175.59 877.544H286.856L286.307 877.89L243.533 904.326ZM116.694 903.96H243.431L285.535 877.91H175.631L116.694 903.96Z" fill="white"/>
<path d="M371.226 904.326H242.842L243.391 903.98L286.084 877.544H397.146L371.226 904.326ZM244.163 903.96H371.104L396.374 877.91H286.226L244.163 903.96Z" fill="white"/>
<path d="M498.939 904.326H370.718L396.638 877.544H507.559V877.788L498.939 904.326ZM371.571 903.96H498.674L507.091 877.91H396.842L371.571 903.96Z" fill="white"/>
<path d="M626.713 904.326H498.634V904.082L507.213 877.544H618.052V877.666L626.713 904.326ZM499.061 903.96H626.205L617.788 877.91H507.477L499.061 903.96Z" fill="white"/>
<path d="M754.548 904.326H626.367V904.204L617.747 877.544H728.668L754.548 904.326ZM626.591 903.96H753.694L728.424 877.91H618.235L626.591 903.96Z" fill="white"/>
<path d="M882.525 904.326H754.04L728.017 877.544H839.121L882.525 904.326ZM754.304 903.96H881.244L839.141 877.91H729.034L754.304 903.96Z" fill="white"/>
<path d="M1010.3 904.326H881.732L838.511 877.585H949.797L1010.3 904.326ZM881.834 903.96H1008.57L949.614 877.91H839.832L881.834 903.96Z" fill="white"/>
<path d="M336.258 940.381H184.556L185.105 940.035L243.431 903.96H371.51L371.205 904.265L336.258 940.381ZM185.816 940.015H336.075L370.636 904.326H243.533L185.816 940.015Z" fill="white"/>
<path d="M487.269 940.381H335.648L335.953 940.076L370.982 903.96H499.061V904.204L487.269 940.381ZM336.604 940.015H487.046L498.593 904.326H371.226L336.604 940.015Z" fill="white"/>
<path d="M638.362 940.381H486.903V940.137L498.613 903.96H626.53V904.082L638.362 940.381ZM487.391 940.015H637.833L626.367 904.326H498.979L487.391 940.015Z" fill="white"/>
<path d="M789.536 940.381H637.976V940.259L626.245 903.96H754.324L789.536 940.381ZM638.24 940.015H788.682L754.121 904.326H626.794L638.24 940.015Z" fill="white"/>
<path d="M940.71 940.381H789.007L753.735 904.021H881.814L940.71 940.381ZM789.17 940.015H939.449L881.753 904.326H754.568L789.17 940.015Z" fill="white"/>
<path d="M285.657 992.561H100.227L100.755 992.216L185.206 940.015H336.665L336.36 940.32L285.657 992.561ZM101.508 992.195H285.494L335.648 940.381H185.206L101.508 992.195Z" fill="white"/>
<path d="M470.416 992.561H285.128L285.433 992.236L336.095 940.015H487.391V940.259L470.416 992.561ZM286.002 992.195H470.152L486.903 940.381H336.258L286.002 992.195Z" fill="white"/>
<path d="M655.236 992.561H470.029V992.317L486.924 940.015H638.159V940.137L655.236 992.561ZM470.517 992.195H654.829L638.077 940.381H487.371L470.517 992.195Z" fill="white"/>
<path d="M840.117 992.561H654.829V992.419L637.895 940.015H789.19L840.117 992.561ZM655.114 992.195H839.263L789.007 940.381H638.362L655.114 992.195Z" fill="white"/>
<path d="M1025.04 992.561H839.609L788.784 940.076H940.283L1025.04 992.561ZM839.771 992.195H1023.76L940.019 940.381H789.577L839.771 992.195Z" fill="white"/>
</g>
<g filter="url(#filter0_di_107_3)">
<path d="M356.036 596.051V599.451H339.038V606.249H352.636V609.649H339.038V616.448H356.036V619.847H332.24V596.051H356.036ZM362.834 613.048V609.649H366.234V606.249H362.834V602.85H359.435V596.051H366.234V599.451H369.633V602.85H373.033V599.451H376.432V596.051H383.231V602.85H379.831V606.249H376.432V609.649H379.831V613.048H383.231V619.847H376.432V616.448H373.033V613.048H369.633V616.448H366.234V619.847H359.435V613.048H362.834ZM407.027 596.051V599.451H410.426V609.649H407.027V613.048H393.429V619.847H386.63V596.051H407.027ZM393.429 609.649H403.627V599.451H393.429V609.649ZM437.621 596.051V599.451H420.624V606.249H434.222V609.649H420.624V616.448H437.621V619.847H413.825V596.051H437.621ZM461.417 596.051V599.451H464.817V609.649H458.018V613.048H461.417V616.448H464.817V619.847H454.618V616.448H451.219V613.048H447.82V619.847H441.021V596.051H461.417ZM447.82 609.649H454.618V606.249H458.018V599.451H447.82V609.649ZM478.414 616.448V599.451H471.615V596.051H492.012V599.451H485.213V616.448H492.012V619.847H471.615V616.448H478.414ZM519.207 596.051V599.451H502.21V606.249H515.808V609.649H502.21V616.448H519.207V619.847H495.411V596.051H519.207ZM529.405 596.051V599.451H532.805V602.85H536.204V606.249H539.603V596.051H546.402V619.847H539.603V616.448H536.204V613.048H532.805V609.649H529.405V619.847H522.606V596.051H529.405ZM553.201 616.448V613.048H549.802V602.85H553.201V599.451H556.601V596.051H570.198V599.451H573.598V602.85H566.799V599.451H560V602.85H556.601V613.048H560V616.448H566.799V613.048H573.598V616.448H570.198V619.847H556.601V616.448H553.201ZM600.793 596.051V599.451H583.796V606.249H597.393V609.649H583.796V616.448H600.793V619.847H576.997V596.051H600.793ZM634.787 602.85V599.451H638.186V596.051H648.385V599.451H651.784V602.85H655.183V619.847H648.385V613.048H638.186V619.847H631.387V602.85H634.787ZM638.186 609.649H648.385V602.85H644.985V599.451H641.586V602.85H638.186V609.649ZM678.979 596.051V599.451H682.379V609.649H675.58V613.048H678.979V616.448H682.379V619.847H672.18V616.448H668.781V613.048H665.382V619.847H658.583V596.051H678.979ZM665.382 609.649H672.18V606.249H675.58V599.451H665.382V609.649ZM689.177 616.448V613.048H685.778V602.85H689.177V599.451H692.577V596.051H706.174V599.451H709.574V602.85H702.775V599.451H695.976V602.85H692.577V613.048H695.976V616.448H702.775V613.048H709.574V616.448H706.174V619.847H692.577V616.448H689.177ZM716.373 602.85V599.451H719.772V596.051H729.97V599.451H733.37V602.85H736.769V619.847H729.97V613.048H719.772V619.847H712.973V602.85H716.373ZM719.772 609.649H729.97V602.85H726.571V599.451H723.171V602.85H719.772V609.649ZM757.166 596.051V599.451H760.565V602.85H763.964V613.048H760.565V616.448H757.166V619.847H740.168V596.051H757.166ZM746.967 616.448H753.766V613.048H757.166V602.85H753.766V599.451H746.967V616.448ZM791.16 596.051V599.451H774.163V606.249H787.76V609.649H774.163V616.448H791.16V619.847H767.364V596.051H791.16Z" fill="white"/>
</g>
</g>
<path d="M186.304 1174.01H933.676C935.992 1174.01 938.267 1173.4 940.272 1172.24C942.278 1171.08 943.941 1169.41 945.096 1167.4C946.251 1165.4 946.855 1163.12 946.849 1160.8C946.843 1158.48 946.226 1156.21 945.06 1154.21L889.072 1057.92C886.162 1052.9 881.987 1048.74 876.963 1045.85C871.94 1042.95 866.244 1041.43 860.447 1041.43H259.533C253.736 1041.43 248.041 1042.95 243.018 1045.85C237.995 1048.74 233.819 1052.9 230.908 1057.92L174.919 1154.21C173.754 1156.21 173.137 1158.48 173.131 1160.8C173.125 1163.12 173.729 1165.4 174.884 1167.4C176.038 1169.41 177.702 1171.08 179.707 1172.24C181.712 1173.4 183.988 1174.01 186.304 1174.01Z" stroke="url(#paint10_linear_107_3)" stroke-width="0.872274" stroke-miterlimit="10"/>
<path d="M824.964 1066.84V1076.23C824.964 1080.1 831.845 1083.26 840.346 1083.26C848.847 1083.26 855.742 1080.1 855.742 1076.23V1066.84H824.964Z" fill="#41297C"/>
<path d="M840.361 1073.87C848.864 1073.87 855.757 1070.72 855.757 1066.84C855.757 1062.96 848.864 1059.81 840.361 1059.81C831.857 1059.81 824.964 1062.96 824.964 1066.84C824.964 1070.72 831.857 1073.87 840.361 1073.87Z" fill="#9F58F0"/>
<path d="M840.346 1061.28C848.317 1061.28 854.269 1064.23 854.269 1066.84C854.269 1069.45 848.376 1072.41 840.346 1072.41C832.316 1072.41 826.437 1069.46 826.437 1066.84C826.437 1064.22 832.331 1061.28 840.346 1061.28ZM840.346 1059.81C831.845 1059.81 824.964 1062.96 824.964 1066.84C824.964 1070.72 831.845 1073.88 840.346 1073.88C848.847 1073.88 855.742 1070.73 855.742 1066.84C855.742 1062.95 848.847 1059.81 840.346 1059.81Z" fill="url(#paint11_linear_107_3)"/>
<path d="M840.361 1070.42C845.943 1070.42 850.468 1068.82 850.468 1066.84C850.468 1064.86 845.943 1063.26 840.361 1063.26C834.779 1063.26 830.253 1064.86 830.253 1066.84C830.253 1068.82 834.779 1070.42 840.361 1070.42Z" fill="url(#paint12_linear_107_3)"/>
<g style="mix-blend-mode:color">
<path d="M855.669 1066.27C854.976 1062.67 848.39 1059.85 840.346 1059.85C832.301 1059.85 825.73 1062.67 825.023 1066.27C818.57 1069.02 814.356 1073.46 814.356 1078.48C814.356 1086.85 825.995 1093.65 840.346 1093.65C854.696 1093.65 866.336 1086.85 866.336 1078.48C866.336 1073.41 862.137 1068.98 855.669 1066.27Z" fill="#F657EA"/>
</g>
<path d="M832.999 1107.42V1120.37C832.999 1125.72 842.513 1130.07 854.244 1130.07C865.974 1130.07 875.489 1125.72 875.489 1120.37V1107.42H832.999Z" fill="#41297C"/>
<path d="M854.244 1117.12C865.977 1117.12 875.488 1112.77 875.488 1107.42C875.488 1102.06 865.977 1097.72 854.244 1097.72C842.51 1097.72 832.999 1102.06 832.999 1107.42C832.999 1112.77 842.51 1117.12 854.244 1117.12Z" fill="#9F58F0"/>
<path d="M854.244 1099.75C865.242 1099.75 873.456 1103.82 873.456 1107.42C873.456 1111.02 865.323 1115.1 854.244 1115.1C843.164 1115.1 835.032 1111.04 835.032 1107.42C835.032 1103.8 843.164 1099.75 854.244 1099.75ZM854.244 1097.72C842.513 1097.72 832.999 1102.07 832.999 1107.42C832.999 1112.77 842.513 1117.14 854.244 1117.14C865.974 1117.14 875.489 1112.79 875.489 1107.42C875.489 1102.05 865.974 1097.72 854.244 1097.72Z" fill="url(#paint13_linear_107_3)"/>
<path d="M854.244 1112.36C861.946 1112.36 868.19 1110.15 868.19 1107.42C868.19 1104.69 861.946 1102.48 854.244 1102.48C846.541 1102.48 840.297 1104.69 840.297 1107.42C840.297 1110.15 846.541 1112.36 854.244 1112.36Z" fill="url(#paint14_linear_107_3)"/>
<g style="mix-blend-mode:color">
<path d="M875.387 1106.62C874.411 1101.66 865.323 1097.78 854.243 1097.78C843.164 1097.78 834.076 1101.66 833.1 1106.62C824.196 1110.43 818.382 1116.55 818.382 1123.48C818.382 1135.03 834.442 1144.41 854.243 1144.41C874.045 1144.41 890.106 1135.03 890.106 1123.48C890.106 1116.49 884.291 1110.37 875.387 1106.62Z" fill="#F657EA"/>
</g>
<path d="M188.744 15.2606L92.0542 1.57481C89.6694 1.24026 87.2406 1.42142 84.9318 2.10607C82.6229 2.79072 80.4879 3.96292 78.6707 5.54351C76.8535 7.12411 75.3964 9.07631 74.398 11.2683C73.3996 13.4603 72.883 15.8411 72.883 18.2499V915.632C72.883 976.028 65.4016 1072.64 39.5418 1108.31C13.682 1143.98 0.914795 1142.62 0.914795 1234.74V1682.87H41.3105V1234.74C41.3105 1142.62 53.9558 1143.96 79.9375 1108.31C105.919 1072.66 113.279 976.028 113.279 915.632V21.1578C113.279 19.5973 113.897 18.1004 114.998 16.995C116.1 15.8896 117.594 15.2659 119.154 15.2606H188.744Z" fill="url(#paint15_linear_107_3)" stroke="url(#paint16_linear_107_3)" stroke-width="0.872274"/>
<path d="M188.744 15.2606L92.0542 1.57481C89.6694 1.24026 87.2406 1.42142 84.9318 2.10607C82.6229 2.79072 80.4879 3.96292 78.6707 5.54351C76.8535 7.12411 75.3964 9.07631 74.398 11.2683C73.3996 13.4603 72.883 15.8411 72.883 18.2499V915.632C72.883 976.028 65.4016 1072.64 39.5418 1108.31C13.682 1143.98 0.914795 1142.62 0.914795 1234.74V1682.87H41.3105V1234.74C41.3105 1142.62 53.9558 1143.96 79.9375 1108.31C105.919 1072.66 113.279 976.028 113.279 915.632V21.1578C113.279 19.5973 113.897 18.1004 114.998 16.995C116.1 15.8896 117.594 15.2659 119.154 15.2606H188.744Z" stroke="url(#paint17_linear_107_3)" stroke-width="0.872274"/>
<path d="M1027.93 1.57481C1030.31 1.24026 1032.74 1.42142 1035.05 2.10607C1037.36 2.79072 1039.49 3.96292 1041.31 5.54351C1043.13 7.12411 1044.58 9.07631 1045.58 11.2683C1046.58 13.4603 1047.1 15.8411 1047.1 18.2499V915.632C1047.1 976.028 1054.58 1072.64 1080.46 1108.31C1106.34 1143.98 1119.09 1142.62 1119.09 1234.74V1682.87H1078.69V1234.74C1078.69 1142.62 1066.02 1143.96 1040.06 1108.31C1014.1 1072.66 1006.7 976.028 1006.7 915.632V21.1578C1006.7 20.3844 1006.55 19.618 1006.26 18.9026C1005.97 18.1872 1005.53 17.5369 1004.99 16.9891C1004.44 16.4412 1003.79 16.0065 1003.08 15.7099C1002.36 15.4132 1001.6 15.2606 1000.83 15.2606H931.317L1027.93 1.57481Z" fill="url(#paint18_linear_107_3)"/>
<path d="M1027.78 0.659747C1030.13 0.336546 1032.51 0.481018 1034.8 1.08483C1037.09 1.68864 1039.24 2.73984 1041.12 4.17778C1043 5.61027 1044.57 7.40423 1045.75 9.45418C1046.93 11.5041 1047.68 13.7687 1047.97 16.1147C1048.21 18.5346 1048.09 20.6698 1048.11 22.9067V897.127V923.827C1048.21 932.707 1048.45 941.587 1048.82 950.467C1049.58 968.24 1050.86 985.972 1052.89 1003.62C1054.76 1021.29 1057.62 1038.84 1061.43 1056.19C1063.36 1064.84 1065.75 1073.38 1068.61 1081.77C1070.11 1085.84 1071.66 1090.07 1073.53 1093.97C1075.32 1098 1077.45 1101.87 1079.87 1105.54C1084.81 1112.82 1090.54 1119.66 1096.13 1126.67C1101.94 1133.57 1106.73 1141.26 1110.36 1149.51C1113.64 1157.88 1115.89 1166.62 1117.05 1175.54C1118.33 1184.41 1119.09 1193.31 1119.45 1202.22C1120.35 1220.03 1120.12 1237.87 1120.16 1255.64V1683.88H1077.73V1243.95C1077.73 1225.65 1077.73 1207.34 1076.15 1189.2C1075.48 1180.13 1074.08 1171.13 1071.98 1162.28C1069.86 1153.48 1066.22 1145.12 1061.23 1137.57C1056.2 1130.05 1050.19 1123.13 1044.62 1115.85C1041.83 1112.21 1039.03 1108.57 1036.48 1104.63C1034.11 1100.66 1032 1096.54 1030.18 1092.29C1023.03 1075.29 1018.88 1057.29 1015.61 1039.27C1012.33 1021.25 1010.24 1003.01 1008.69 984.773C1007.15 966.532 1006.25 948.169 1005.91 929.867C1005.72 920.716 1005.79 911.565 1005.77 902.414V21.1782C1005.77 20.2247 1005.5 19.2905 1004.97 18.4939C1004.48 17.71 1003.78 17.0823 1002.94 16.6841C1002 16.3274 1000.99 16.1884 999.992 16.2774H986.269C977.134 16.2774 967.993 16.1689 958.844 15.952C949.696 15.7351 940.52 15.5046 931.317 15.2606C947.378 12.5763 963.459 10.0954 979.56 7.65514C987.692 6.39434 995.662 5.27589 1003.71 4.09644L1027.78 0.659747ZM1028.07 2.69329L1003.9 6.00796C995.763 7.10608 987.774 8.2652 979.703 9.28197C963.561 11.3155 947.419 13.4914 931.236 15.3826C940.384 15.0843 949.526 14.8674 958.661 14.7319C967.809 14.5488 976.958 14.4675 986.086 14.4065H999.809C1001.09 14.3053 1002.38 14.5001 1003.57 14.9759C1004.79 15.526 1005.83 16.4212 1006.55 17.5518C1007.27 18.6824 1007.65 19.9993 1007.64 21.3409V902.455C1007.64 911.606 1007.64 920.757 1007.78 929.867C1008.12 948.169 1009.02 966.471 1010.56 984.59C1012.11 1002.71 1014.24 1020.95 1017.46 1038.91C1020.67 1056.86 1024.84 1074.74 1031.89 1091.49C1033.65 1095.65 1035.69 1099.67 1037.99 1103.55C1040.37 1107.35 1043.15 1110.99 1045.92 1114.61C1051.45 1121.85 1057.46 1128.85 1062.61 1136.45C1067.74 1144.19 1071.47 1152.77 1073.65 1161.79C1075.78 1170.74 1077.2 1179.85 1077.88 1189.02C1079.44 1207.32 1079.46 1225.63 1079.46 1243.93V1682.87L1078.45 1681.85H1118.84L1117.82 1682.87V1255.72C1117.82 1237.93 1118.01 1220.14 1117.11 1202.4C1116.67 1193.54 1115.99 1184.67 1114.73 1175.97C1113.6 1167.21 1111.4 1158.62 1108.17 1150.4C1104.63 1142.33 1099.95 1134.79 1094.28 1128.04C1088.81 1121.06 1083.1 1114.23 1078.02 1106.79C1075.55 1103.02 1073.39 1099.06 1071.55 1094.95C1069.64 1090.88 1068.06 1086.69 1066.55 1082.48C1063.67 1074.02 1061.25 1065.41 1059.29 1056.68C1055.47 1039.23 1052.61 1021.58 1050.74 1003.81C1048.7 986.094 1047.48 968.321 1046.67 950.508C1046.29 941.614 1046.05 932.714 1045.96 923.807V897.086V22.8254C1045.96 20.6291 1045.96 18.3109 1045.84 16.2774C1045.57 14.1989 1044.9 12.1937 1043.85 10.3779C1042.81 8.56202 1041.41 6.97163 1039.75 5.69877C1038.08 4.42591 1036.18 3.49588 1034.16 2.96253C1032.13 2.42918 1030.02 2.30311 1027.95 2.59161L1028.07 2.69329Z" fill="url(#paint19_linear_107_3)"/>
<path d="M289.447 1144.41C323.612 1144.41 351.308 1131.83 351.308 1116.32C351.308 1100.8 323.612 1088.22 289.447 1088.22C255.282 1088.22 227.585 1100.8 227.585 1116.32C227.585 1131.83 255.282 1144.41 289.447 1144.41Z" fill="url(#paint20_linear_107_3)"/>
<g style="mix-blend-mode:multiply" opacity="0.49">
<path d="M289.447 1125.69C302.388 1125.69 312.879 1120.95 312.879 1115.1C312.879 1109.25 302.388 1104.51 289.447 1104.51C276.505 1104.51 266.014 1109.25 266.014 1115.1C266.014 1120.95 276.505 1125.69 289.447 1125.69Z" fill="#27282B"/>
</g>
<path d="M280.247 1040.67V1114.68C280.247 1117.2 284.361 1118.82 289.447 1118.82C294.532 1118.82 298.646 1117.2 298.646 1114.68V1040.67H280.247Z" fill="url(#paint21_linear_107_3)"/>
<mask id="mask1_107_3" style="mask-type:alpha" maskUnits="userSpaceOnUse" x="248" y="973" width="83" height="82">
<path d="M329.484 1020.39C333.062 998.244 318.014 977.389 295.874 973.81C273.733 970.23 252.883 985.282 249.305 1007.43C245.727 1029.58 260.775 1050.43 282.915 1054.01C305.056 1057.59 325.906 1042.54 329.484 1020.39Z" fill="#8D5F94"/>
</mask>
<g mask="url(#mask1_107_3)">
<path d="M329.484 1020.39C333.062 998.244 318.014 977.389 295.874 973.81C273.733 970.23 252.883 985.282 249.305 1007.43C245.727 1029.58 260.775 1050.43 282.915 1054.01C305.056 1057.59 325.906 1042.54 329.484 1020.39Z" fill="#9B00B3"/>
<path d="M279.241 1013.56C302.535 1013.56 321.419 1000.2 321.419 983.73C321.419 967.257 302.535 953.903 279.241 953.903C255.947 953.903 237.063 967.257 237.063 983.73C237.063 1000.2 255.947 1013.56 279.241 1013.56Z" fill="url(#paint22_radial_107_3)"/>
</g>
<path d="M225.744 339.428L139.139 313.866L132.287 1176.43L225.744 1015.7V339.428Z" fill="url(#paint23_linear_107_3)"/>
<path d="M894.256 339.428L980.862 313.866L987.693 1176.43L894.256 1015.7V339.428Z" fill="url(#paint24_linear_107_3)"/>
<g style="mix-blend-mode:screen">
<path style="mix-blend-mode:screen" d="M939.653 81.6761C939.653 84.5637 939.653 87.3904 939.409 90.0746C938.494 105.082 935.18 116.206 931.277 116.206C927.373 116.206 923.998 104.981 923.145 89.7696C922.982 87.1463 922.901 84.401 922.901 81.6354C922.901 78.8698 922.901 76.0838 923.145 73.5012C924.039 58.3514 927.353 47.0652 931.277 47.0652C935.2 47.0652 938.575 58.3107 939.409 73.5012C939.571 76.1042 939.653 78.8495 939.653 81.6761Z" fill="url(#paint25_radial_107_3)"/>
<path style="mix-blend-mode:screen" d="M931.317 90.1356C912.248 90.1356 896.756 86.3533 896.756 81.7168C896.756 77.0803 912.207 73.2979 931.317 73.2979C950.428 73.2979 965.878 77.06 965.878 81.7168C965.878 86.3736 950.306 90.1356 931.317 90.1356Z" fill="url(#paint26_radial_107_3)"/>
</g>
<g style="mix-blend-mode:screen">
<path d="M934.611 81.4117H936.644L934.611 81.6151C933.776 81.7074 933.002 82.0973 932.431 82.7134C931.86 83.3295 931.529 84.1307 931.5 84.9704V87.004L931.277 84.9704C931.193 84.132 930.805 83.3531 930.188 82.7802C929.57 82.2072 928.764 81.8797 927.922 81.8591H925.889L927.922 81.6558C928.764 81.5713 929.545 81.181 930.118 80.5589C930.692 79.9368 931.017 79.126 931.033 78.2801V76.2465L931.236 78.2801C931.324 79.1222 931.715 79.9038 932.336 80.4797C932.956 81.0556 933.765 81.3868 934.611 81.4117Z" fill="white"/>
</g>
<g style="mix-blend-mode:screen">
<path style="mix-blend-mode:screen" d="M195.859 198.035C195.859 200.923 195.859 203.75 195.595 206.434C194.68 221.441 191.366 232.565 187.463 232.565C183.56 232.565 180.185 221.34 179.331 206.129C179.189 203.506 179.087 200.76 179.087 197.995C179.087 195.229 179.087 192.443 179.331 189.861C180.225 174.711 183.539 163.424 187.463 163.424C191.387 163.424 194.761 174.67 195.595 189.861C195.758 192.463 195.859 195.209 195.859 198.035Z" fill="url(#paint27_radial_107_3)"/>
<path style="mix-blend-mode:screen" d="M187.422 206.454C168.353 206.454 152.861 202.672 152.861 198.035C152.861 193.399 168.312 189.617 187.422 189.617C206.533 189.617 221.983 193.379 221.983 198.035C221.983 202.692 206.492 206.454 187.422 206.454Z" fill="url(#paint28_radial_107_3)"/>
</g>
<g style="mix-blend-mode:screen">
<path d="M190.797 197.771H192.83L190.797 197.995C189.958 198.083 189.18 198.47 188.604 199.087C188.029 199.704 187.696 200.507 187.666 201.35V203.384L187.443 201.35C187.363 200.51 186.977 199.729 186.358 199.155C185.74 198.581 184.932 198.255 184.088 198.239H182.055L184.088 198.035C184.934 197.952 185.72 197.563 186.3 196.942C186.88 196.321 187.214 195.509 187.239 194.66V192.626L187.443 194.66C187.539 195.493 187.93 196.265 188.545 196.836C189.16 197.406 189.959 197.738 190.797 197.771Z" fill="white"/>
</g>
<g style="mix-blend-mode:screen">
<path style="mix-blend-mode:screen" d="M239.304 96.8463C239.304 98.5545 239.304 100.242 239.162 101.828C238.613 110.735 236.662 117.324 234.324 117.324C231.986 117.324 229.993 110.654 229.465 101.686C229.465 100.141 229.323 98.5138 229.323 96.8463C229.323 95.1788 229.323 93.5723 229.465 92.0065C229.993 83.0385 231.965 76.3685 234.324 76.3685C236.682 76.3685 238.634 83.0385 239.162 92.0065C239.264 93.552 239.304 95.1788 239.304 96.8463Z" fill="url(#paint29_radial_107_3)"/>
<path style="mix-blend-mode:screen" d="M234.324 101.829C223.02 101.829 213.851 99.6119 213.851 96.8463C213.851 94.0807 223.02 91.8641 234.324 91.8641C245.627 91.8641 254.775 94.0807 254.775 96.8463C254.775 99.6119 245.627 101.829 234.324 101.829Z" fill="url(#paint30_radial_107_3)"/>
</g>
<g style="mix-blend-mode:screen">
<path d="M236.316 96.6837H237.475L236.316 96.8057C235.809 96.8515 235.338 97.0858 234.995 97.4623C234.653 97.8388 234.464 98.3301 234.466 98.8392V100.019L234.344 98.8392C234.293 98.3359 234.057 97.8694 233.681 97.531C233.305 97.1926 232.817 97.0065 232.311 97.009H231.152L232.311 96.887C232.818 96.8412 233.289 96.6069 233.632 96.2304C233.974 95.8539 234.163 95.3625 234.161 94.8535V93.674L234.283 94.8535C234.334 95.3568 234.57 95.8232 234.946 96.1617C235.322 96.5001 235.81 96.6862 236.316 96.6837Z" fill="white"/>
</g>
<g style="mix-blend-mode:screen">
<path style="mix-blend-mode:screen" d="M890.474 177.578C890.474 179.286 890.474 180.974 890.332 182.56C889.783 191.467 887.811 198.056 885.473 198.056C883.135 198.056 881.163 191.386 880.634 182.418C880.634 180.872 880.492 179.245 880.492 177.578C880.492 175.91 880.492 174.304 880.634 172.738C881.163 163.77 883.135 157.1 885.473 157.1C887.811 157.1 889.803 163.77 890.332 172.738C890.413 174.263 890.474 175.89 890.474 177.578Z" fill="url(#paint31_radial_107_3)"/>
<path style="mix-blend-mode:screen" d="M885.473 182.54C874.17 182.54 865.021 180.323 865.021 177.558C865.021 174.792 874.17 172.575 885.473 172.575C896.777 172.575 905.946 174.792 905.946 177.558C905.946 180.323 896.756 182.54 885.473 182.54Z" fill="url(#paint32_radial_107_3)"/>
</g>
<g style="mix-blend-mode:screen">
<path d="M887.486 177.395H888.645L887.486 177.517C886.979 177.563 886.508 177.797 886.165 178.174C885.823 178.55 885.634 179.041 885.636 179.551V180.73L885.493 179.551C885.443 179.047 885.207 178.581 884.831 178.242C884.455 177.904 883.966 177.718 883.46 177.72H882.302L883.46 177.598C883.967 177.553 884.439 177.318 884.781 176.942C885.124 176.565 885.313 176.074 885.311 175.565V174.385L885.433 175.565C885.484 176.072 885.723 176.541 886.103 176.88C886.483 177.219 886.977 177.403 887.486 177.395Z" fill="white"/>
</g>
<g style="mix-blend-mode:screen">
<path style="mix-blend-mode:screen" d="M472.062 265.956C472.062 267.684 472.063 269.352 471.92 270.938C471.371 279.845 469.42 286.434 467.082 286.434C464.744 286.434 462.772 279.784 462.223 270.816C462.223 269.25 462.08 267.623 462.08 265.956C462.08 264.288 462.08 262.682 462.223 261.136C462.751 252.148 464.723 245.498 467.082 245.498C469.44 245.498 471.392 252.148 471.92 261.116C472.022 262.661 472.062 264.288 472.062 265.956Z" fill="url(#paint33_radial_107_3)"/>
<path style="mix-blend-mode:screen" d="M467.082 270.958C455.778 270.958 446.609 268.721 446.609 265.956C446.609 263.19 455.778 260.974 467.082 260.974C478.385 260.974 487.554 263.211 487.554 265.956C487.554 268.701 478.385 270.958 467.082 270.958Z" fill="url(#paint34_radial_107_3)"/>
</g>
<g style="mix-blend-mode:screen">
<path d="M469.074 265.813H470.253L469.074 265.935C468.571 265.986 468.105 266.222 467.766 266.598C467.428 266.974 467.242 267.463 467.244 267.969V269.148L467.122 267.989C467.077 267.482 466.842 267.011 466.466 266.668C466.089 266.326 465.598 266.137 465.089 266.139H463.91L465.069 266.017C465.576 265.971 466.047 265.737 466.39 265.36C466.732 264.984 466.921 264.492 466.919 263.983V262.824L467.041 263.983C467.092 264.487 467.328 264.953 467.704 265.291C468.08 265.63 468.568 265.816 469.074 265.813Z" fill="white"/>
</g>
<g style="mix-blend-mode:screen">
<path style="mix-blend-mode:screen" d="M927.82 240.496C927.82 242.224 927.82 243.892 927.658 245.478C927.129 254.385 925.157 260.974 922.819 260.974C920.481 260.974 918.509 254.324 917.981 245.356C917.981 243.79 917.838 242.163 917.838 240.496C917.838 238.828 917.838 237.222 917.981 235.676C918.509 226.688 920.481 220.038 922.819 220.038C925.157 220.038 927.149 226.688 927.678 235.656C927.759 237.201 927.82 238.828 927.82 240.496Z" fill="url(#paint35_radial_107_3)"/>
<path style="mix-blend-mode:screen" d="M922.819 245.498C911.516 245.498 902.367 243.261 902.367 240.496C902.367 237.73 911.516 235.514 922.819 235.514C934.123 235.514 943.292 237.751 943.292 240.496C943.292 243.241 934.123 245.498 922.819 245.498Z" fill="url(#paint36_radial_107_3)"/>
</g>
<g style="mix-blend-mode:screen">
<path d="M924.832 240.354H925.991L924.832 240.476C924.325 240.521 923.854 240.756 923.511 241.132C923.169 241.509 922.98 242 922.982 242.509V243.689L922.86 242.529C922.814 242.022 922.58 241.551 922.204 241.208C921.827 240.866 921.336 240.677 920.827 240.679H919.668L920.827 240.557C921.334 240.511 921.805 240.277 922.148 239.9C922.49 239.524 922.679 239.032 922.677 238.523V237.364L922.799 238.523C922.85 239.027 923.086 239.493 923.462 239.832C923.838 240.17 924.326 240.356 924.832 240.354Z" fill="white"/>
</g>
<g style="mix-blend-mode:screen">
<path style="mix-blend-mode:screen" d="M342.337 71.6304C342.337 73.3386 342.337 75.0264 342.174 76.6126C341.747 85.5195 339.714 92.1692 337.336 92.1692C334.957 92.1692 333.026 85.4992 332.497 76.5312C332.396 74.9857 332.355 73.3589 332.355 71.6914C332.355 70.0239 332.355 68.4174 332.497 66.8516C333.026 57.8836 334.998 51.2136 337.336 51.2136C339.674 51.2136 341.666 57.8836 342.195 66.8516C342.276 68.3361 342.337 69.9629 342.337 71.6304Z" fill="url(#paint37_radial_107_3)"/>
<path style="mix-blend-mode:screen" d="M337.336 76.6126C326.032 76.6126 316.884 74.396 316.884 71.6304C316.884 68.8648 326.032 66.6482 337.336 66.6482C348.639 66.6482 357.808 68.8648 357.808 71.6304C357.808 74.396 348.639 76.6126 337.336 76.6126Z" fill="url(#paint38_radial_107_3)"/>
</g>
<g style="mix-blend-mode:screen">
<path d="M339.328 71.4677H340.507L339.348 71.5897C338.841 71.6355 338.37 71.8698 338.028 72.2464C337.685 72.6229 337.496 73.1142 337.498 73.6233V74.8027L337.376 73.6233C337.326 73.1199 337.089 72.6535 336.714 72.3151C336.338 71.9767 335.849 71.7905 335.343 71.7931H334.185L335.343 71.6711C335.85 71.6253 336.321 71.3909 336.664 71.0144C337.007 70.6379 337.195 70.1466 337.193 69.6375V68.4581L337.315 69.6375C337.366 70.1374 337.599 70.601 337.971 70.9389C338.342 71.2768 338.826 71.4652 339.328 71.4677Z" fill="white"/>
</g>
<g style="mix-blend-mode:screen">
<path style="mix-blend-mode:screen" d="M616.955 81.6761C616.955 83.3843 616.955 85.0518 616.812 86.6583C616.284 95.5449 614.312 102.134 611.974 102.134C609.636 102.134 607.664 95.4839 607.135 86.516C607.135 84.9705 606.993 83.3436 606.993 81.6761C606.993 80.0086 606.993 78.3818 607.135 76.8363C607.664 67.8684 609.636 61.1984 611.974 61.1984C614.312 61.1984 616.284 67.8481 616.833 76.816C616.914 78.3818 616.955 79.968 616.955 81.6761Z" fill="url(#paint39_radial_107_3)"/>
<path style="mix-blend-mode:screen" d="M611.974 86.6583C600.67 86.6583 591.501 84.4214 591.501 81.6761C591.501 78.9308 600.67 76.6736 611.974 76.6736C623.277 76.6736 632.446 78.9105 632.446 81.6761C632.446 84.4417 623.277 86.6583 611.974 86.6583Z" fill="url(#paint40_radial_107_3)"/>
</g>
<g style="mix-blend-mode:screen">
<path d="M613.966 81.5134H615.145L613.986 81.6354C613.48 81.6812 613.008 81.9155 612.666 82.292C612.323 82.6685 612.134 83.1599 612.136 83.6689V84.8281L612.014 83.6689C611.968 83.1619 611.734 82.6905 611.358 82.3479C610.981 82.0053 610.49 81.8163 609.981 81.8184H608.802L609.981 81.6964C610.485 81.6458 610.951 81.4094 611.289 81.0334C611.627 80.6574 611.814 80.1687 611.811 79.6628V78.4834L611.933 79.6425C611.974 80.1532 612.206 80.6295 612.583 80.9764C612.96 81.3232 613.454 81.515 613.966 81.5134Z" fill="white"/>
</g>
<g style="mix-blend-mode:screen">
<path style="mix-blend-mode:screen" d="M264.757 260.953C264.757 262.661 264.757 264.329 264.615 265.935C264.066 274.822 262.115 281.431 259.777 281.431C257.439 281.431 255.446 274.761 254.918 265.793C254.918 264.248 254.775 262.621 254.775 260.953C254.775 259.286 254.775 257.659 254.918 256.113C255.446 247.146 257.418 240.476 259.777 240.476C262.135 240.476 264.087 247.146 264.615 256.093C264.717 257.679 264.757 259.306 264.757 260.953Z" fill="url(#paint41_radial_107_3)"/>
<path style="mix-blend-mode:screen" d="M259.777 265.956C248.473 265.956 239.304 263.719 239.304 260.974C239.304 258.228 248.473 255.971 259.777 255.971C271.08 255.971 280.229 258.208 280.229 260.974C280.229 263.739 271.08 265.956 259.777 265.956Z" fill="url(#paint42_radial_107_3)"/>
</g>
<g style="mix-blend-mode:screen">
<path d="M261.769 260.811H262.928L261.769 260.933C261.262 260.979 260.791 261.213 260.448 261.59C260.106 261.966 259.917 262.457 259.919 262.966V264.126L259.797 262.966C259.747 262.463 259.51 261.997 259.134 261.658C258.758 261.32 258.27 261.134 257.764 261.136H256.585L257.744 261.014C258.251 260.968 258.722 260.734 259.064 260.358C259.407 259.981 259.596 259.49 259.594 258.981V257.801L259.716 258.96C259.762 259.471 259.999 259.945 260.38 260.288C260.76 260.631 261.257 260.818 261.769 260.811Z" fill="white"/>
</g>
<g style="mix-blend-mode:screen">
<path style="mix-blend-mode:screen" d="M814.542 260.953C814.542 264.614 814.42 268.172 814.217 271.589C813.058 290.582 808.87 304.654 803.889 304.654C798.908 304.654 794.659 290.419 793.541 271.304C793.338 267.989 793.236 264.512 793.236 260.953C793.236 257.395 793.338 253.938 793.541 250.643C794.659 231.487 798.867 217.253 803.889 217.253C808.91 217.253 813.098 231.487 814.237 250.603C814.44 253.938 814.542 257.395 814.542 260.953Z" fill="url(#paint43_radial_107_3)"/>
<path style="mix-blend-mode:screen" d="M803.889 271.629C779.757 271.629 760.2 266.851 760.2 260.974C760.2 255.097 779.757 250.318 803.889 250.318C828.021 250.318 847.578 255.097 847.578 260.974C847.578 266.851 828.021 271.629 803.889 271.629Z" fill="url(#paint44_radial_107_3)"/>
</g>
<g style="mix-blend-mode:screen">
<path d="M808.138 260.628H810.639L808.158 260.892C807.097 261.001 806.111 261.492 805.386 262.274C804.66 263.056 804.243 264.076 804.214 265.142V267.644L803.95 265.163C803.837 264.099 803.342 263.113 802.557 262.388C801.771 261.662 800.749 261.246 799.681 261.218H797.2L799.681 260.953C800.742 260.84 801.725 260.344 802.447 259.558C803.169 258.772 803.581 257.75 803.604 256.683V254.202L803.869 256.683C803.977 257.748 804.471 258.737 805.257 259.463C806.044 260.189 807.068 260.604 808.138 260.628Z" fill="white"/>
</g>
<g style="mix-blend-mode:screen">
<path style="mix-blend-mode:screen" d="M821.291 90.1357C821.291 93.796 821.169 97.3548 820.966 100.771C819.807 119.764 815.619 133.837 810.638 133.837C805.658 133.837 801.429 119.602 800.291 100.486C800.087 97.1717 799.986 93.6944 799.986 90.1357C799.986 86.577 799.986 83.1199 800.291 79.8256C801.409 60.6493 805.617 46.4348 810.638 46.4348C815.66 46.4348 819.848 60.6696 820.986 79.7849C821.19 83.0589 821.291 86.516 821.291 90.1357Z" fill="url(#paint45_radial_107_3)"/>
<path style="mix-blend-mode:screen" d="M810.638 100.751C786.507 100.751 766.949 95.9719 766.949 90.095C766.949 84.218 786.507 79.4392 810.638 79.4392C834.77 79.4392 854.328 84.1977 854.328 90.095C854.328 95.9922 834.77 100.751 810.638 100.751Z" fill="url(#paint46_radial_107_3)"/>
</g>
<g style="mix-blend-mode:screen">
<path d="M814.908 89.7492H817.388L814.908 90.0136C813.846 90.1219 812.861 90.613 812.135 91.3951C811.409 92.1773 810.993 93.1969 810.964 94.2637V96.765L810.699 94.284C810.591 93.2224 810.1 92.2365 809.318 91.5105C808.536 90.7845 807.517 90.368 806.45 90.339H803.95L806.43 90.0746C807.493 89.9616 808.479 89.4664 809.204 88.6809C809.93 87.8954 810.346 86.8731 810.374 85.8042V83.3232L810.638 85.8042C810.747 86.8692 811.241 87.8579 812.027 88.5843C812.813 89.3108 813.838 89.725 814.908 89.7492Z" fill="white"/>
</g>
<path d="M974.478 314.903H145.522C140.195 314.898 135.087 312.78 131.318 309.014C127.549 305.248 125.427 300.141 125.416 294.812V35.3723C125.427 30.0416 127.548 24.9324 131.317 21.163C135.085 17.3937 140.193 15.2713 145.522 15.2606H974.478C979.805 15.2713 984.911 17.3943 988.676 21.1643C992.441 24.9342 994.558 30.0435 994.564 35.3723V294.812C994.558 300.139 992.44 305.246 988.675 309.013C984.909 312.779 979.803 314.898 974.478 314.903ZM145.522 25.5096C142.907 25.5096 140.399 26.5487 138.55 28.3983C136.701 30.2479 135.662 32.7566 135.662 35.3723V294.812C135.662 297.428 136.701 299.936 138.55 301.786C140.399 303.635 142.907 304.674 145.522 304.674H974.478C977.091 304.669 979.596 303.628 981.444 301.78C983.292 299.931 984.332 297.426 984.338 294.812V35.3723C984.338 32.7566 983.299 30.2479 981.45 28.3983C979.601 26.5487 977.093 25.5096 974.478 25.5096H145.522Z" fill="url(#paint47_linear_107_3)"/>
<defs>
<filter id="filter0_di_107_3" x="276.511" y="546.296" width="566.978" height="143.053" filterUnits="userSpaceOnUse" color-interpolation-filters="sRGB">
<feFlood flood-opacity="0" result="BackgroundImageFix"/>
<feColorMatrix in="SourceAlpha" type="matrix" values="0 0 0 0 0 0 0 0 0 0 0 0 0 0 0 0 0 0 127 0" result="hardAlpha"/>
<feOffset dy="3.4891"/>
<feGaussianBlur stdDeviation="23.5514"/>
<feComposite in2="hardAlpha" operator="out"/>
<feColorMatrix type="matrix" values="0 0 0 0 0.956863 0 0 0 0 0.2 0 0 0 0 1 0 0 0 1 0"/>
<feBlend mode="normal" in2="BackgroundImageFix" result="effect1_dropShadow_107_3"/>
<feBlend mode="normal" in="SourceGraphic" in2="effect1_dropShadow_107_3" result="shape"/>
<feColorMatrix in="SourceAlpha" type="matrix" values="0 0 0 0 0 0 0 0 0 0 0 0 0 0 0 0 0 0 127 0" result="hardAlpha"/>
<feOffset dx="0.872274" dy="3.4891"/>
<feGaussianBlur stdDeviation="5.23364"/>
<feComposite in2="hardAlpha" operator="arithmetic" k2="-1" k3="1"/>
<feColorMatrix type="matrix" values="0 0 0 0 0.949493 0 0 0 0 0.0633334 0 0 0 0 1 0 0 0 0.6 0"/>
<feBlend mode="normal" in2="shape" result="effect2_innerShadow_107_3"/>
</filter>
<linearGradient id="paint0_linear_107_3" x1="-13.4991" y1="849.074" x2="283.197" y2="849.074" gradientUnits="userSpaceOnUse">
<stop stop-color="#4F3288"/>
<stop offset="0.17" stop-color="#3F256F"/>
<stop offset="0.41" stop-color="#2B1551"/>
<stop offset="0.62" stop-color="#1F0B3F"/>
<stop offset="0.77" stop-color="#1B0838"/>
</linearGradient>
<linearGradient id="paint1_linear_107_3" x1="844.02" y1="849.074" x2="1140.72" y2="849.074" gradientUnits="userSpaceOnUse">
<stop offset="0.23" stop-color="#1B0838"/>
<stop offset="0.38" stop-color="#1F0B3F"/>
<stop offset="0.59" stop-color="#2B1551"/>
<stop offset="0.83" stop-color="#3F256F"/>
<stop offset="1" stop-color="#4F3288"/>
</linearGradient>
<linearGradient id="paint2_linear_107_3" x1="559.99" y1="339.428" x2="559.99" y2="313.866" gradientUnits="userSpaceOnUse">
<stop stop-color="#1B0838"/>
<stop offset="0.29" stop-color="#1C093B"/>
<stop offset="0.5" stop-color="#210E44"/>
<stop offset="0.67" stop-color="#281653"/>
<stop offset="0.84" stop-color="#322269"/>
<stop offset="0.99" stop-color="#3F3185"/>
<stop offset="1" stop-color="#403288"/>
</linearGradient>
<linearGradient id="paint3_linear_107_3" x1="559.99" y1="365.457" x2="559.99" y2="298.675" gradientUnits="userSpaceOnUse">
<stop stop-color="#F433FF"/>
<stop offset="0.89" stop-color="#5729EA" stop-opacity="0"/>
</linearGradient>
<linearGradient id="paint4_linear_107_3" x1="559.99" y1="377.862" x2="559.99" y2="-60.2652" gradientUnits="userSpaceOnUse">
<stop stop-color="#6232C9"/>
<stop offset="0.03" stop-color="#5C2EBC"/>
<stop offset="0.15" stop-color="#482394"/>
<stop offset="0.28" stop-color="#381973"/>
<stop offset="0.4" stop-color="#2B1259"/>
<stop offset="0.53" stop-color="#220C47"/>
<stop offset="0.67" stop-color="#1D093C"/>
<stop offset="0.82" stop-color="#1B0838"/>
</linearGradient>
<linearGradient id="paint5_linear_107_3" x1="559.99" y1="1015.7" x2="559.99" y2="339.428" gradientUnits="userSpaceOnUse">
<stop stop-color="#29134E"/>
<stop offset="0.55" stop-color="#1F0B3F"/>
<stop offset="1" stop-color="#1B0838"/>
</linearGradient>
<linearGradient id="paint6_linear_107_3" x1="559.99" y1="1015.7" x2="559.99" y2="339.428" gradientUnits="userSpaceOnUse">
<stop stop-color="#29134E"/>
<stop offset="0.55" stop-color="#1F0B3F"/>
<stop offset="1" stop-color="#1B0838"/>
</linearGradient>
<linearGradient id="paint7_linear_107_3" x1="559.99" y1="1682.87" x2="559.99" y2="1015.7" gradientUnits="userSpaceOnUse">
<stop stop-color="#1B0838"/>
<stop offset="0.17" stop-color="#1E083C"/>
<stop offset="0.27" stop-color="#230842"/>
<stop offset="0.49" stop-color="#1E083C"/>
<stop offset="0.58" stop-color="#1B0838"/>
<stop offset="0.61" stop-color="#1D0A3C"/>
<stop offset="0.65" stop-color="#221047"/>
<stop offset="0.69" stop-color="#2B1A5A"/>
<stop offset="0.72" stop-color="#4A2B7F"/>
<stop offset="0.73" stop-color="#6F3295"/>
<stop offset="1" stop-color="#2B1A5A"/>
</linearGradient>
<linearGradient id="paint8_linear_107_3" x1="559.99" y1="1682.87" x2="559.99" y2="1015.7" gradientUnits="userSpaceOnUse">
<stop offset="0.84" stop-color="#5729EA" stop-opacity="0"/>
<stop offset="1" stop-color="#F433FF"/>
</linearGradient>
<radialGradient id="paint9_radial_107_3" cx="0" cy="0" r="1" gradientUnits="userSpaceOnUse" gradientTransform="translate(559.38 350.836) scale(474.604 474.731)">
<stop stop-color="#6508A1"/>
<stop offset="0.05" stop-color="#5F0899"/>
<stop offset="0.35" stop-color="#42086F"/>
<stop offset="0.61" stop-color="#2D0851"/>
<stop offset="0.84" stop-color="#20083F"/>
<stop offset="1" stop-color="#1B0838"/>
</radialGradient>
<linearGradient id="paint10_linear_107_3" x1="172.094" y1="1107.64" x2="947.886" y2="1107.64" gradientUnits="userSpaceOnUse">
<stop stop-color="#5629EA"/>
<stop offset="0.2" stop-color="#FFD2A2"/>
<stop offset="0.48" stop-color="#F433FF"/>
<stop offset="0.71" stop-color="#F433FF"/>
<stop offset="1" stop-color="#FFD2A2"/>
</linearGradient>
<linearGradient id="paint11_linear_107_3" x1="824.964" y1="1066.84" x2="855.742" y2="1066.84" gradientUnits="userSpaceOnUse">
<stop stop-color="#9F58F0"/>
<stop offset="0.3" stop-color="#A35BF0"/>
<stop offset="0.58" stop-color="#AE63F0"/>
<stop offset="0.85" stop-color="#C170F0"/>
<stop offset="1" stop-color="#CF7AF0"/>
</linearGradient>
<linearGradient id="paint12_linear_107_3" x1="830.253" y1="1066.84" x2="850.468" y2="1066.84" gradientUnits="userSpaceOnUse">
<stop stop-color="#CF7AF0"/>
<stop offset="0.15" stop-color="#C170F0"/>
<stop offset="0.42" stop-color="#AE63F0"/>
<stop offset="0.7" stop-color="#A35BF0"/>
<stop offset="1" stop-color="#9F58F0"/>
</linearGradient>
<linearGradient id="paint13_linear_107_3" x1="832.999" y1="1107.42" x2="875.489" y2="1107.42" gradientUnits="userSpaceOnUse">
<stop stop-color="#9F58F0"/>
<stop offset="0.3" stop-color="#A35BF0"/>
<stop offset="0.58" stop-color="#AE63F0"/>
<stop offset="0.85" stop-color="#C170F0"/>
<stop offset="1" stop-color="#CF7AF0"/>
</linearGradient>
<linearGradient id="paint14_linear_107_3" x1="840.318" y1="1107.42" x2="868.19" y2="1107.42" gradientUnits="userSpaceOnUse">
<stop stop-color="#CF7AF0"/>
<stop offset="0.15" stop-color="#C170F0"/>
<stop offset="0.42" stop-color="#AE63F0"/>
<stop offset="0.7" stop-color="#A35BF0"/>
<stop offset="1" stop-color="#9F58F0"/>
</linearGradient>
<linearGradient id="paint15_linear_107_3" x1="94.8801" y1="1682.87" x2="94.8801" y2="1.41222" gradientUnits="userSpaceOnUse">
<stop stop-color="#5629EA"/>
<stop offset="0.19" stop-color="#D731ED"/>
<stop offset="0.35" stop-color="#38298E"/>
<stop offset="0.5" stop-color="#F433FF"/>
<stop offset="0.88" stop-color="#5629EA"/>
<stop offset="1" stop-color="#2B105A"/>
</linearGradient>
<linearGradient id="paint16_linear_107_3" x1="-5.52856e-05" y1="842.14" x2="188.886" y2="842.14" gradientUnits="userSpaceOnUse">
<stop offset="0.19" stop-color="#FFD2A2"/>
<stop offset="0.5" stop-color="#F433FF"/>
<stop offset="1" stop-color="#5629EA"/>
</linearGradient>
<linearGradient id="paint17_linear_107_3" x1="-5.52856e-05" y1="842.14" x2="188.886" y2="842.14" gradientUnits="userSpaceOnUse">
<stop offset="0.19" stop-color="#FFD2A2"/>
<stop offset="0.5" stop-color="#F433FF"/>
<stop offset="1" stop-color="#5629EA"/>
</linearGradient>
<linearGradient id="paint18_linear_107_3" x1="1025.12" y1="1682.87" x2="1025.12" y2="1.41222" gradientUnits="userSpaceOnUse">
<stop stop-color="#5629EA"/>
<stop offset="0.19" stop-color="#D731ED"/>
<stop offset="0.35" stop-color="#38298E"/>
<stop offset="0.5" stop-color="#F433FF"/>
<stop offset="0.88" stop-color="#5629EA"/>
<stop offset="1" stop-color="#2B105A"/>
</linearGradient>
<linearGradient id="paint19_linear_107_3" x1="931.236" y1="842.14" x2="1120" y2="842.14" gradientUnits="userSpaceOnUse">
<stop stop-color="#5629EA"/>
<stop offset="0.5" stop-color="#F433FF"/>
<stop offset="1" stop-color="#FFD2A2"/>
</linearGradient>
<linearGradient id="paint20_linear_107_3" x1="289.447" y1="1151.56" x2="289.447" y2="1095.39" gradientUnits="userSpaceOnUse">
<stop stop-color="#F657EA"/>
<stop offset="0.01" stop-color="#F456E8"/>
<stop offset="0.17" stop-color="#B33FB3"/>
<stop offset="0.32" stop-color="#7D2B87"/>
<stop offset="0.46" stop-color="#521C65"/>
<stop offset="0.58" stop-color="#34114C"/>
<stop offset="0.69" stop-color="#220A3D"/>
<stop offset="0.77" stop-color="#1B0838"/>
</linearGradient>
<linearGradient id="paint21_linear_107_3" x1="280.247" y1="1079.73" x2="298.646" y2="1079.73" gradientUnits="userSpaceOnUse">
<stop stop-color="#1B0838"/>
<stop offset="0.11" stop-color="#1D0A3C"/>
<stop offset="0.22" stop-color="#221047"/>
<stop offset="0.33" stop-color="#2B1A5A"/>
<stop offset="0.43" stop-color="#372875"/>
<stop offset="0.49" stop-color="#403288"/>
<stop offset="0.72" stop-color="#362773"/>
<stop offset="0.81" stop-color="#2D1D5F"/>
<stop offset="0.83" stop-color="#2B1A5A"/>
<stop offset="0.9" stop-color="#33236B"/>
<stop offset="1" stop-color="#403288"/>
</linearGradient>
<radialGradient id="paint22_radial_107_3" cx="0" cy="0" r="1" gradientUnits="userSpaceOnUse" gradientTransform="translate(279.241 981.686) scale(40.7721 26.9168)">
<stop stop-color="#FBB7F6"/>
<stop offset="0.11" stop-color="#FBAFF5" stop-opacity="0.92"/>
<stop offset="0.34" stop-color="#FA9BF2" stop-opacity="0.71"/>
<stop offset="0.67" stop-color="#F87AEE" stop-opacity="0.37"/>
<stop offset="1" stop-color="#F657EA" stop-opacity="0"/>
</radialGradient>
<linearGradient id="paint23_linear_107_3" x1="63.5923" y1="745.14" x2="260.041" y2="745.14" gradientUnits="userSpaceOnUse">
<stop offset="0.37" stop-color="#5729EA" stop-opacity="0"/>
<stop offset="1" stop-color="#F433FF"/>
</linearGradient>
<linearGradient id="paint24_linear_107_3" x1="1057.95" y1="745.14" x2="861.504" y2="745.14" gradientUnits="userSpaceOnUse">
<stop offset="0.39" stop-color="#5729EA" stop-opacity="0"/>
<stop offset="1" stop-color="#FDB7B2"/>
</linearGradient>
<radialGradient id="paint25_radial_107_3" cx="0" cy="0" r="1" gradientUnits="userSpaceOnUse" gradientTransform="translate(931.252 81.6558) rotate(90) scale(25.1346 7.53835)">
<stop stop-color="white"/>
<stop offset="0.12" stop-color="#FFC6FF" stop-opacity="0.78"/>
<stop offset="0.24" stop-color="#FF92FF" stop-opacity="0.57"/>
<stop offset="0.37" stop-color="#FF66FF" stop-opacity="0.4"/>
<stop offset="0.5" stop-color="#FF41FF" stop-opacity="0.25"/>
<stop offset="0.62" stop-color="#FF24FF" stop-opacity="0.14"/>
<stop offset="0.75" stop-color="#FF10FF" stop-opacity="0.06"/>
<stop offset="0.88" stop-color="#FF04FF" stop-opacity="0.02"/>
<stop offset="1" stop-color="#FF00FF" stop-opacity="0"/>
</radialGradient>
<radialGradient id="paint26_radial_107_3" cx="0" cy="0" r="1" gradientUnits="userSpaceOnUse" gradientTransform="translate(931.236 81.6761) rotate(180) scale(25.1279 7.54038)">
<stop stop-color="white"/>
<stop offset="0.12" stop-color="#FFC6FF" stop-opacity="0.78"/>
<stop offset="0.24" stop-color="#FF92FF" stop-opacity="0.57"/>
<stop offset="0.37" stop-color="#FF66FF" stop-opacity="0.4"/>
<stop offset="0.5" stop-color="#FF41FF" stop-opacity="0.25"/>
<stop offset="0.62" stop-color="#FF24FF" stop-opacity="0.14"/>
<stop offset="0.75" stop-color="#FF10FF" stop-opacity="0.06"/>
<stop offset="0.88" stop-color="#FF04FF" stop-opacity="0.02"/>
<stop offset="1" stop-color="#FF00FF" stop-opacity="0"/>
</radialGradient>
<radialGradient id="paint27_radial_107_3" cx="0" cy="0" r="1" gradientUnits="userSpaceOnUse" gradientTransform="translate(187.426 198.015) rotate(90) scale(25.1346 7.53836)">
<stop stop-color="white"/>
<stop offset="0.12" stop-color="#FFC6FF" stop-opacity="0.78"/>
<stop offset="0.24" stop-color="#FF92FF" stop-opacity="0.57"/>
<stop offset="0.37" stop-color="#FF66FF" stop-opacity="0.4"/>
<stop offset="0.5" stop-color="#FF41FF" stop-opacity="0.25"/>
<stop offset="0.62" stop-color="#FF24FF" stop-opacity="0.14"/>
<stop offset="0.75" stop-color="#FF10FF" stop-opacity="0.06"/>
<stop offset="0.88" stop-color="#FF04FF" stop-opacity="0.02"/>
<stop offset="1" stop-color="#FF00FF" stop-opacity="0"/>
</radialGradient>
<radialGradient id="paint28_radial_107_3" cx="0" cy="0" r="1" gradientUnits="userSpaceOnUse" gradientTransform="translate(187.422 198.033) rotate(180) scale(25.1279 7.54038)">
<stop stop-color="white"/>
<stop offset="0.12" stop-color="#FFC6FF" stop-opacity="0.78"/>
<stop offset="0.24" stop-color="#FF92FF" stop-opacity="0.57"/>
<stop offset="0.37" stop-color="#FF66FF" stop-opacity="0.4"/>
<stop offset="0.5" stop-color="#FF41FF" stop-opacity="0.25"/>
<stop offset="0.62" stop-color="#FF24FF" stop-opacity="0.14"/>
<stop offset="0.75" stop-color="#FF10FF" stop-opacity="0.06"/>
<stop offset="0.88" stop-color="#FF04FF" stop-opacity="0.02"/>
<stop offset="1" stop-color="#FF00FF" stop-opacity="0"/>
</radialGradient>
<radialGradient id="paint29_radial_107_3" cx="0" cy="0" r="1" gradientUnits="userSpaceOnUse" gradientTransform="translate(234.324 96.8463) rotate(90) scale(14.9059 4.47054)">
<stop stop-color="white"/>
<stop offset="0.12" stop-color="#FFC6FF" stop-opacity="0.78"/>
<stop offset="0.24" stop-color="#FF92FF" stop-opacity="0.57"/>
<stop offset="0.37" stop-color="#FF66FF" stop-opacity="0.4"/>
<stop offset="0.5" stop-color="#FF41FF" stop-opacity="0.25"/>
<stop offset="0.62" stop-color="#FF24FF" stop-opacity="0.14"/>
<stop offset="0.75" stop-color="#FF10FF" stop-opacity="0.06"/>
<stop offset="0.88" stop-color="#FF04FF" stop-opacity="0.02"/>
<stop offset="1" stop-color="#FF00FF" stop-opacity="0"/>
</radialGradient>
<radialGradient id="paint30_radial_107_3" cx="0" cy="0" r="1" gradientUnits="userSpaceOnUse" gradientTransform="translate(234.324 96.8402) rotate(180) scale(14.9018 4.47176)">
<stop stop-color="white"/>
<stop offset="0.12" stop-color="#FFC6FF" stop-opacity="0.78"/>
<stop offset="0.24" stop-color="#FF92FF" stop-opacity="0.57"/>
<stop offset="0.37" stop-color="#FF66FF" stop-opacity="0.4"/>
<stop offset="0.5" stop-color="#FF41FF" stop-opacity="0.25"/>
<stop offset="0.62" stop-color="#FF24FF" stop-opacity="0.14"/>
<stop offset="0.75" stop-color="#FF10FF" stop-opacity="0.06"/>
<stop offset="0.88" stop-color="#FF04FF" stop-opacity="0.02"/>
<stop offset="1" stop-color="#FF00FF" stop-opacity="0"/>
</radialGradient>
<radialGradient id="paint31_radial_107_3" cx="0" cy="0" r="1" gradientUnits="userSpaceOnUse" gradientTransform="translate(885.479 177.558) rotate(90) scale(14.9059 4.4706)">
<stop stop-color="white"/>
<stop offset="0.12" stop-color="#FFC6FF" stop-opacity="0.78"/>
<stop offset="0.24" stop-color="#FF92FF" stop-opacity="0.57"/>
<stop offset="0.37" stop-color="#FF66FF" stop-opacity="0.4"/>
<stop offset="0.5" stop-color="#FF41FF" stop-opacity="0.25"/>
<stop offset="0.62" stop-color="#FF24FF" stop-opacity="0.14"/>
<stop offset="0.75" stop-color="#FF10FF" stop-opacity="0.06"/>
<stop offset="0.88" stop-color="#FF04FF" stop-opacity="0.02"/>
<stop offset="1" stop-color="#FF00FF" stop-opacity="0"/>
</radialGradient>
<radialGradient id="paint32_radial_107_3" cx="0" cy="0" r="1" gradientUnits="userSpaceOnUse" gradientTransform="translate(885.473 177.552) rotate(180) scale(14.9019 4.47176)">
<stop stop-color="white"/>
<stop offset="0.12" stop-color="#FFC6FF" stop-opacity="0.78"/>
<stop offset="0.24" stop-color="#FF92FF" stop-opacity="0.57"/>
<stop offset="0.37" stop-color="#FF66FF" stop-opacity="0.4"/>
<stop offset="0.5" stop-color="#FF41FF" stop-opacity="0.25"/>
<stop offset="0.62" stop-color="#FF24FF" stop-opacity="0.14"/>
<stop offset="0.75" stop-color="#FF10FF" stop-opacity="0.06"/>
<stop offset="0.88" stop-color="#FF04FF" stop-opacity="0.02"/>
<stop offset="1" stop-color="#FF00FF" stop-opacity="0"/>
</radialGradient>
<radialGradient id="paint33_radial_107_3" cx="0" cy="0" r="1" gradientUnits="userSpaceOnUse" gradientTransform="translate(467.086 265.956) rotate(90) scale(14.9059 4.4706)">
<stop stop-color="white"/>
<stop offset="0.12" stop-color="#FFC6FF" stop-opacity="0.78"/>
<stop offset="0.24" stop-color="#FF92FF" stop-opacity="0.57"/>
<stop offset="0.37" stop-color="#FF66FF" stop-opacity="0.4"/>
<stop offset="0.5" stop-color="#FF41FF" stop-opacity="0.25"/>
<stop offset="0.62" stop-color="#FF24FF" stop-opacity="0.14"/>
<stop offset="0.75" stop-color="#FF10FF" stop-opacity="0.06"/>
<stop offset="0.88" stop-color="#FF04FF" stop-opacity="0.02"/>
<stop offset="1" stop-color="#FF00FF" stop-opacity="0"/>
</radialGradient>
<radialGradient id="paint34_radial_107_3" cx="0" cy="0" r="1" gradientUnits="userSpaceOnUse" gradientTransform="translate(467.082 265.964) rotate(180) scale(14.9019 4.47176)">
<stop stop-color="white"/>
<stop offset="0.12" stop-color="#FFC6FF" stop-opacity="0.78"/>
<stop offset="0.24" stop-color="#FF92FF" stop-opacity="0.57"/>
<stop offset="0.37" stop-color="#FF66FF" stop-opacity="0.4"/>
<stop offset="0.5" stop-color="#FF41FF" stop-opacity="0.25"/>
<stop offset="0.62" stop-color="#FF24FF" stop-opacity="0.14"/>
<stop offset="0.75" stop-color="#FF10FF" stop-opacity="0.06"/>
<stop offset="0.88" stop-color="#FF04FF" stop-opacity="0.02"/>
<stop offset="1" stop-color="#FF00FF" stop-opacity="0"/>
</radialGradient>
<radialGradient id="paint35_radial_107_3" cx="0" cy="0" r="1" gradientUnits="userSpaceOnUse" gradientTransform="translate(922.836 240.496) rotate(90) scale(14.9059 4.4706)">
<stop stop-color="white"/>
<stop offset="0.12" stop-color="#FFC6FF" stop-opacity="0.78"/>
<stop offset="0.24" stop-color="#FF92FF" stop-opacity="0.57"/>
<stop offset="0.37" stop-color="#FF66FF" stop-opacity="0.4"/>
<stop offset="0.5" stop-color="#FF41FF" stop-opacity="0.25"/>
<stop offset="0.62" stop-color="#FF24FF" stop-opacity="0.14"/>
<stop offset="0.75" stop-color="#FF10FF" stop-opacity="0.06"/>
<stop offset="0.88" stop-color="#FF04FF" stop-opacity="0.02"/>
<stop offset="1" stop-color="#FF00FF" stop-opacity="0"/>
</radialGradient>
<radialGradient id="paint36_radial_107_3" cx="0" cy="0" r="1" gradientUnits="userSpaceOnUse" gradientTransform="translate(922.84 240.492) rotate(180) scale(14.9019 4.47175)">
<stop stop-color="white"/>
<stop offset="0.12" stop-color="#FFC6FF" stop-opacity="0.78"/>
<stop offset="0.24" stop-color="#FF92FF" stop-opacity="0.57"/>
<stop offset="0.37" stop-color="#FF66FF" stop-opacity="0.4"/>
<stop offset="0.5" stop-color="#FF41FF" stop-opacity="0.25"/>
<stop offset="0.62" stop-color="#FF24FF" stop-opacity="0.14"/>
<stop offset="0.75" stop-color="#FF10FF" stop-opacity="0.06"/>
<stop offset="0.88" stop-color="#FF04FF" stop-opacity="0.02"/>
<stop offset="1" stop-color="#FF00FF" stop-opacity="0"/>
</radialGradient>
<radialGradient id="paint37_radial_107_3" cx="0" cy="0" r="1" gradientUnits="userSpaceOnUse" gradientTransform="translate(337.336 71.6304) rotate(90) scale(14.9059 4.47054)">
<stop stop-color="white"/>
<stop offset="0.12" stop-color="#FFC6FF" stop-opacity="0.78"/>
<stop offset="0.24" stop-color="#FF92FF" stop-opacity="0.57"/>
<stop offset="0.37" stop-color="#FF66FF" stop-opacity="0.4"/>
<stop offset="0.5" stop-color="#FF41FF" stop-opacity="0.25"/>
<stop offset="0.62" stop-color="#FF24FF" stop-opacity="0.14"/>
<stop offset="0.75" stop-color="#FF10FF" stop-opacity="0.06"/>
<stop offset="0.88" stop-color="#FF04FF" stop-opacity="0.02"/>
<stop offset="1" stop-color="#FF00FF" stop-opacity="0"/>
</radialGradient>
<radialGradient id="paint38_radial_107_3" cx="0" cy="0" r="1" gradientUnits="userSpaceOnUse" gradientTransform="translate(337.336 71.6324) rotate(180) scale(14.9019 4.47176)">
<stop stop-color="white"/>
<stop offset="0.12" stop-color="#FFC6FF" stop-opacity="0.78"/>
<stop offset="0.24" stop-color="#FF92FF" stop-opacity="0.57"/>
<stop offset="0.37" stop-color="#FF66FF" stop-opacity="0.4"/>
<stop offset="0.5" stop-color="#FF41FF" stop-opacity="0.25"/>
<stop offset="0.62" stop-color="#FF24FF" stop-opacity="0.14"/>
<stop offset="0.75" stop-color="#FF10FF" stop-opacity="0.06"/>
<stop offset="0.88" stop-color="#FF04FF" stop-opacity="0.02"/>
<stop offset="1" stop-color="#FF00FF" stop-opacity="0"/>
</radialGradient>
<radialGradient id="paint39_radial_107_3" cx="0" cy="0" r="1" gradientUnits="userSpaceOnUse" gradientTransform="translate(611.97 81.6761) rotate(90) scale(14.9059 4.47059)">
<stop stop-color="white"/>
<stop offset="0.12" stop-color="#FFC6FF" stop-opacity="0.78"/>
<stop offset="0.24" stop-color="#FF92FF" stop-opacity="0.57"/>
<stop offset="0.37" stop-color="#FF66FF" stop-opacity="0.4"/>
<stop offset="0.5" stop-color="#FF41FF" stop-opacity="0.25"/>
<stop offset="0.62" stop-color="#FF24FF" stop-opacity="0.14"/>
<stop offset="0.75" stop-color="#FF10FF" stop-opacity="0.06"/>
<stop offset="0.88" stop-color="#FF04FF" stop-opacity="0.02"/>
<stop offset="1" stop-color="#FF00FF" stop-opacity="0"/>
</radialGradient>
<radialGradient id="paint40_radial_107_3" cx="0" cy="0" r="1" gradientUnits="userSpaceOnUse" gradientTransform="translate(611.974 81.6659) rotate(180) scale(14.9019 4.47176)">
<stop stop-color="white"/>
<stop offset="0.12" stop-color="#FFC6FF" stop-opacity="0.78"/>
<stop offset="0.24" stop-color="#FF92FF" stop-opacity="0.57"/>
<stop offset="0.37" stop-color="#FF66FF" stop-opacity="0.4"/>
<stop offset="0.5" stop-color="#FF41FF" stop-opacity="0.25"/>
<stop offset="0.62" stop-color="#FF24FF" stop-opacity="0.14"/>
<stop offset="0.75" stop-color="#FF10FF" stop-opacity="0.06"/>
<stop offset="0.88" stop-color="#FF04FF" stop-opacity="0.02"/>
<stop offset="1" stop-color="#FF00FF" stop-opacity="0"/>
</radialGradient>
<radialGradient id="paint41_radial_107_3" cx="0" cy="0" r="1" gradientUnits="userSpaceOnUse" gradientTransform="translate(259.771 260.974) rotate(90) scale(14.9059 4.4706)">
<stop stop-color="white"/>
<stop offset="0.12" stop-color="#FFC6FF" stop-opacity="0.78"/>
<stop offset="0.24" stop-color="#FF92FF" stop-opacity="0.57"/>
<stop offset="0.37" stop-color="#FF66FF" stop-opacity="0.4"/>
<stop offset="0.5" stop-color="#FF41FF" stop-opacity="0.25"/>
<stop offset="0.62" stop-color="#FF24FF" stop-opacity="0.14"/>
<stop offset="0.75" stop-color="#FF10FF" stop-opacity="0.06"/>
<stop offset="0.88" stop-color="#FF04FF" stop-opacity="0.02"/>
<stop offset="1" stop-color="#FF00FF" stop-opacity="0"/>
</radialGradient>
<radialGradient id="paint42_radial_107_3" cx="0" cy="0" r="1" gradientUnits="userSpaceOnUse" gradientTransform="translate(259.777 260.98) rotate(180) scale(14.9019 4.47176)">
<stop stop-color="white"/>
<stop offset="0.12" stop-color="#FFC6FF" stop-opacity="0.78"/>
<stop offset="0.24" stop-color="#FF92FF" stop-opacity="0.57"/>
<stop offset="0.37" stop-color="#FF66FF" stop-opacity="0.4"/>
<stop offset="0.5" stop-color="#FF41FF" stop-opacity="0.25"/>
<stop offset="0.62" stop-color="#FF24FF" stop-opacity="0.14"/>
<stop offset="0.75" stop-color="#FF10FF" stop-opacity="0.06"/>
<stop offset="0.88" stop-color="#FF04FF" stop-opacity="0.02"/>
<stop offset="1" stop-color="#FF00FF" stop-opacity="0"/>
</radialGradient>
<radialGradient id="paint43_radial_107_3" cx="0" cy="0" r="1" gradientUnits="userSpaceOnUse" gradientTransform="translate(803.883 260.974) rotate(90) scale(31.8046 9.53893)">
<stop stop-color="white"/>
<stop offset="0.12" stop-color="#FFC6FF" stop-opacity="0.78"/>
<stop offset="0.24" stop-color="#FF92FF" stop-opacity="0.57"/>
<stop offset="0.37" stop-color="#FF66FF" stop-opacity="0.4"/>
<stop offset="0.5" stop-color="#FF41FF" stop-opacity="0.25"/>
<stop offset="0.62" stop-color="#FF24FF" stop-opacity="0.14"/>
<stop offset="0.75" stop-color="#FF10FF" stop-opacity="0.06"/>
<stop offset="0.88" stop-color="#FF04FF" stop-opacity="0.02"/>
<stop offset="1" stop-color="#FF00FF" stop-opacity="0"/>
</radialGradient>
<radialGradient id="paint44_radial_107_3" cx="0" cy="0" r="1" gradientUnits="userSpaceOnUse" gradientTransform="translate(803.889 260.963) rotate(180) scale(31.7962 9.54138)">
<stop stop-color="white"/>
<stop offset="0.12" stop-color="#FFC6FF" stop-opacity="0.78"/>
<stop offset="0.24" stop-color="#FF92FF" stop-opacity="0.57"/>
<stop offset="0.37" stop-color="#FF66FF" stop-opacity="0.4"/>
<stop offset="0.5" stop-color="#FF41FF" stop-opacity="0.25"/>
<stop offset="0.62" stop-color="#FF24FF" stop-opacity="0.14"/>
<stop offset="0.75" stop-color="#FF10FF" stop-opacity="0.06"/>
<stop offset="0.88" stop-color="#FF04FF" stop-opacity="0.02"/>
<stop offset="1" stop-color="#FF00FF" stop-opacity="0"/>
</radialGradient>
<radialGradient id="paint45_radial_107_3" cx="0" cy="0" r="1" gradientUnits="userSpaceOnUse" gradientTransform="translate(810.63 90.095) rotate(90) scale(31.8046 9.53882)">
<stop stop-color="white"/>
<stop offset="0.12" stop-color="#FFC6FF" stop-opacity="0.78"/>
<stop offset="0.24" stop-color="#FF92FF" stop-opacity="0.57"/>
<stop offset="0.37" stop-color="#FF66FF" stop-opacity="0.4"/>
<stop offset="0.5" stop-color="#FF41FF" stop-opacity="0.25"/>
<stop offset="0.62" stop-color="#FF24FF" stop-opacity="0.14"/>
<stop offset="0.75" stop-color="#FF10FF" stop-opacity="0.06"/>
<stop offset="0.88" stop-color="#FF04FF" stop-opacity="0.02"/>
<stop offset="1" stop-color="#FF00FF" stop-opacity="0"/>
</radialGradient>
<radialGradient id="paint46_radial_107_3" cx="0" cy="0" r="1" gradientUnits="userSpaceOnUse" gradientTransform="translate(810.638 90.097) rotate(180) scale(31.7961 9.54138)">
<stop stop-color="white"/>
<stop offset="0.12" stop-color="#FFC6FF" stop-opacity="0.78"/>
<stop offset="0.24" stop-color="#FF92FF" stop-opacity="0.57"/>
<stop offset="0.37" stop-color="#FF66FF" stop-opacity="0.4"/>
<stop offset="0.5" stop-color="#FF41FF" stop-opacity="0.25"/>
<stop offset="0.62" stop-color="#FF24FF" stop-opacity="0.14"/>
<stop offset="0.75" stop-color="#FF10FF" stop-opacity="0.06"/>
<stop offset="0.88" stop-color="#FF04FF" stop-opacity="0.02"/>
<stop offset="1" stop-color="#FF00FF" stop-opacity="0"/>
</radialGradient>
<linearGradient id="paint47_linear_107_3" x1="390.173" y1="459.305" x2="729.942" y2="-129.063" gradientUnits="userSpaceOnUse">
<stop stop-color="#5629EA"/>
<stop offset="0.29" stop-color="#F433FF"/>
<stop offset="0.54" stop-color="#FFD2A2"/>
<stop offset="0.74" stop-color="#5629EA"/>
<stop offset="1" stop-color="#F433FF"/>
</linearGradient>
</defs>
</svg>
